<svg width="233" height="233" viewBox="0 0 233 233" fill="none" xmlns="http://www.w3.org/2000/svg">
<path d="M136.03 190.993C133 192.532 130.296 193.624 129.582 193.625C128.996 193.623 129.67 192.148 130.617 190.579C131.714 188.756 129.824 188.168 128.833 187.882C125.511 186.922 122.245 185.733 119.06 184.34C118.274 183.997 116.5 183.374 114.017 184.469C110.075 186.209 105.121 188.489 104.38 188.486C103.844 188.486 105.698 185.373 107.536 182.406C109.131 179.829 107.396 178.117 106.367 177.428C103.062 175.22 99.9016 172.759 96.8782 170.072C96.2511 169.514 94.6623 168.622 92.2468 169.6C88.4624 171.142 84.2754 173.185 83.5936 173.187C83.0546 173.18 85.2516 168.945 87.6036 165.019C88.1466 164.114 88.8377 162.249 87.0179 159.831C84.4089 156.344 81.6665 152.869 79.3141 149.046C78.7412 148.113 76.999 146.485 74.5234 147.598C71.1443 149.138 67.708 150.636 67.0989 150.636C66.5693 150.632 68.8887 146.419 71.6438 142.301C72.3929 141.198 73.7963 140.024 72.6942 136.362C72.3812 135.326 71.8292 134.384 71.4277 133.372C70.0788 129.968 68.882 126.56 68.0093 123.087C67.2036 119.865 64.9275 120.108 63.8271 120.633C60.4451 122.247 57.0144 123.882 56.4192 123.877C55.8335 123.875 59.5245 118.53 63.2729 113.823C64.0306 112.885 65.2803 111.159 65.0927 108.021C64.8367 103.685 64.3928 99.429 64.5346 95.1747C64.6605 91.3311 61.5584 92.0118 60.1072 92.6551C56.4234 94.2871 53.4733 95.7408 52.7846 95.7457C52.1332 95.7421 57.179 89.7363 62.2247 85.0013C63.3955 83.8963 65.5085 81.8271 66.5159 77.4196C67.2799 74.0994 68.2821 70.8474 69.1561 67.6202C70.0197 64.4488 67.8886 64.9758 66.6848 65.4851C62.1202 67.4162 58.2742 69.4179 57.4657 69.4074C56.7208 69.414 65.4233 61.6261 70.9424 57.6752C72.1447 56.8139 73.8141 55.5934 75.5269 52.7606C76.9826 50.3451 78.2821 47.8635 79.9026 45.5766C81.3393 43.5437 79.6809 43.9515 78.7992 44.3098C73.7365 46.3782 69.3081 48.7144 68.4295 48.7115C67.5836 48.7094 80.2929 40.7397 85.5047 38.1454C89.244 33.7428 96.47 28.3792 101.118 24.8336C99.7748 25.4017 98.6431 25.8879 98.2172 26.1048L68.0603 38.8631C66.4397 39.7764 59.0701 42.5636 57.7899 43.2081C54.5056 44.9869 52.2714 46.2993 49.4653 48.8748C47.62 50.5737 47.9121 53.381 49.5922 53.2946C51.4548 53.1971 58.4251 52.518 57.8038 53.1849C57.2897 53.7329 48.9807 56.9176 43.7114 58.7722C41.6133 59.5055 38.7096 60.543 37.8244 61.8357C35.5696 65.1255 36.3439 64.2911 34.5297 68.0776C33.8089 69.5799 34.4013 71.9149 36.3038 71.9181C38.1288 71.91 47.5379 73.2842 46.704 74.1732C45.9913 74.9375 35.6747 80.0881 32.9989 80.963C30.3535 81.8324 29.056 82.5356 28.5651 84.2491C27.3502 88.502 27.5346 89.7462 26.9705 94.3702C26.7449 96.1992 27.8717 98.837 29.3371 98.8855C30.8001 98.9276 37.6424 98.9712 42.2697 100.15C38.1306 101.556 30.9373 106.325 29.1977 107.061C27.4582 107.797 26.1059 108.465 26.1519 110.385C26.2568 115.262 26.6049 116.98 27.3658 121.852C27.6817 123.797 29.1071 125.302 30.9426 125.444C32.7782 125.585 47.1081 127.772 45.9097 128.213C43.9145 128.939 34.6784 135.381 33.1645 136.051C31.6506 136.721 31.082 138.217 31.6331 140.1C32.6639 143.623 32.81 143.561 34.1839 147.027C34.6846 148.27 35.1991 149.507 35.7271 150.716C36.5054 152.495 39.0716 153.701 41.0233 153.705C43.6946 153.721 57.4673 153.969 56.6131 154.889C55.9049 155.644 45.7832 161.307 44.7102 161.797C42.2744 162.909 42.8579 165.262 43.8638 166.96C46.3952 171.214 46.7875 172.04 49.8235 175.846C50.7249 176.992 52.467 177.636 53.9322 177.479C55.3975 177.322 74.3722 176.427 73.511 177.35C72.7983 178.114 63.5541 184.023 62.0134 184.748C59.9728 185.729 61.2482 188.311 62.972 189.852C66.4364 192.955 65.0651 192.14 68.7496 194.65C69.5145 195.186 72.105 195.449 72.8159 195.295C74.2288 195.006 94.9527 191.821 94.089 192.737C93.3763 193.502 83.4893 198.199 81.6619 199.082C79.8345 199.965 81.0779 202.385 82.5988 203.086C86.46 204.853 85.6254 204.633 89.4674 205.696C91.649 206.301 95.4824 204.555 95.8096 204.622C99.9048 203.536 116.983 198.595 116.175 199.466C115.462 200.23 109.687 203.371 104.198 206.413C102.352 207.106 104.718 208.772 106.249 208.8C110.077 208.906 113.868 208.588 117.53 207.847C117.673 207.816 117.796 207.778 117.914 207.728C119.125 207.216 126.969 204.662 128.305 204.097C130.023 203.369 153.344 193.636 164.754 188.867C157.428 189.939 147.523 191.045 140.032 190.225C139.404 190.16 137.826 190.071 136.03 190.993Z" fill="#F7E02D"/>
<path d="M194.923 77.1306C194.067 75.3095 192.474 74.3976 191.007 75.1219C190.974 75.1423 190.966 75.2261 190.926 75.2493C189.817 73.0524 188.666 70.8941 187.418 68.8188C187.457 68.7956 187.488 68.7907 187.511 68.7668C188.645 67.7504 188.711 65.5614 187.644 63.8901C184.971 59.7069 182.011 55.7043 178.873 51.9995C177.639 50.5048 174.347 50.9961 174.347 50.9961C174.347 50.9961 171.698 48.4164 170.051 46.8443C170.067 46.8014 170.114 46.7972 170.132 46.7606C170.841 45.2391 170.304 43.0049 168.914 41.7777C165.43 38.6875 161.753 35.9161 158.012 33.5223C156.527 32.5747 152.947 34.1632 152.938 34.2252C152.414 33.8623 150.754 33.0067 148.866 32.1099C148.879 32.0388 148.934 32.0537 148.94 31.9853C149.154 30.1334 148.055 28.1083 146.516 27.4608C142.604 25.8389 138.651 24.6143 134.751 23.8161C133.183 23.5102 128.025 26.3949 128.025 26.3949L126.39 26.3137C126.391 26.2545 126.421 26.2278 126.413 26.1869C126.089 24.2271 124.579 22.6517 123.062 22.6629C119.233 22.7158 115.453 23.1888 111.802 24.0945C110.726 24.3184 107.094 25.6708 104.356 26.7477C99.6817 30.5173 95.4441 34.8237 91.7063 39.598C96.5788 38.2347 88.6187 49.1493 87.8973 44.8992C85.6766 48.2623 83.7002 51.8139 81.9773 55.5357C86.6081 54.1368 81.9863 66.9754 78.9004 63.1108C76.9838 68.6105 75.5946 74.3985 74.7769 80.4205C78.4201 77.6998 78.2161 91.7243 74.0162 89.4693C73.7871 95.6232 74.1713 101.972 75.2082 108.472C78.5079 105.705 81.0061 117.413 76.9739 117.195C78.1412 121.942 79.662 126.761 81.5522 131.608C81.9455 132.617 82.3505 133.613 82.7671 134.598C85.9067 131.734 91.617 141.077 86.7492 143.12C89.7669 148.918 93.1586 154.193 96.8508 158.944C98.3164 156.066 107.529 162.473 102.856 165.934C106.683 169.965 110.766 173.528 115.049 176.622C115.501 173.692 125.536 178.679 121.846 181.052C126.489 183.775 131.322 185.983 136.26 187.709C135.989 185.2 145.221 187.252 142.876 189.712C150.967 191.78 159.259 192.571 167.508 192.142C171.196 190.686 173.638 189.727 173.638 189.727C177.303 188.127 178.954 187.037 180.34 186.022C181.554 185.128 182.773 180.28 182.773 180.28C182.773 180.28 187.566 178.127 188.573 177.726C188.876 177.605 189.149 177.408 189.385 177.138C191.937 174.164 194.257 170.827 196.294 167.2C197.104 165.77 196.667 163.525 195.328 162.197C195.292 162.167 195.256 162.181 195.235 162.146C196.144 160.325 196.304 159.901 197.089 157.947C197.118 157.979 199.47 157.291 200.174 157.01C200.745 156.782 201.23 156.274 201.473 155.539C202.9 151.415 204.023 147.031 204.793 142.494C205.093 140.695 204.121 138.62 202.589 137.845C202.53 137.817 202.49 137.862 202.44 137.838C202.73 135.597 202.983 134.074 203.124 131.745C203.165 131.765 204.21 131.21 204.632 131.041C205.499 130.696 206.08 129.745 206.124 128.46C206.245 123.676 206.006 118.764 205.448 113.848C205.223 111.892 203.78 110.217 202.234 110.093C202.211 110.095 202.197 110.122 202.173 110.124C201.822 107.743 201.355 105.356 200.836 102.96C200.874 102.952 200.901 103 200.932 102.995C201.092 102.968 201.245 102.922 201.379 102.869C202.583 102.388 203.175 100.796 202.743 99.0624C201.519 94.1915 199.967 89.3124 198.116 84.5667C197.119 82.0318 196.053 79.5467 194.923 77.1306ZM162.257 159.539C143.063 167.191 118.352 149.926 107.069 120.988C95.7799 92.0384 102.191 62.3735 121.385 54.7216C140.586 47.0668 165.28 64.3314 176.569 93.2813C187.85 122.212 181.459 151.884 162.257 159.539Z" fill="#F7E02D"/>
</svg>
