<svg width="300" height="300" viewBox="0 0 300 300" fill="none" xmlns="http://www.w3.org/2000/svg">
<g clip-path="url(#clip0_6_273)">
<path d="M53.7648 206.044C53.1519 206.228 52.6088 206.19 52.1503 206.007C44.0073 209.172 35.5576 198.836 39.6694 190.567C43.8317 182.197 58.3023 179.573 65.2421 185.763C69.0756 189.183 69.5006 194.707 66.2812 198.616C63.1749 202.388 58.3643 204.668 53.7648 206.044ZM50.4951 189.775C49.7246 189.784 49.1402 189.506 48.7269 189.087C47.8098 189.479 46.9832 189.915 46.3038 190.362C41.4473 193.551 44.5369 203.681 50.5416 201.083C54.8381 199.222 56.8272 189.71 50.4951 189.775ZM62.6647 190.747C61.561 188.795 59.6371 187.86 57.4401 187.585C59.6623 190.335 60.0427 194.547 58.8641 198.315C61.9911 196.48 64.4471 193.901 62.6647 190.747Z" fill="#10162F"/>
<path d="M50.5998 197.199C49.6046 198.195 47.941 198.195 46.9458 197.199C45.9506 196.204 45.9513 194.542 46.9458 193.547C47.0905 193.403 47.2332 193.26 47.3766 193.116C48.3711 192.12 50.0347 192.121 51.0299 193.116C52.0251 194.111 52.0251 195.773 51.0299 196.769C50.8865 196.913 50.7432 197.056 50.5998 197.199Z" fill="#10162F"/>
<path d="M0.00331593 191.822C0.151845 178.887 5.12456 166.272 13.2624 156.305C8.12499 153.253 5.23113 149.069 6.8269 142.63C8.16891 137.216 11.9843 133.377 16.8621 131.432C14.1174 126.604 16.6199 119.801 18.8635 115.311C21.1025 110.83 25.1026 106.877 30.0689 106.171C38.3501 103.059 46.7087 104.544 55.1184 106.826C59.8432 108.108 64.5221 109.523 69.3443 110.404C74.875 111.415 80.5607 110.875 86.1443 110.74C94.9228 110.528 103.065 110.954 109.414 117.646C113.589 122.047 114.524 127.534 111.749 131.949C119.491 129.975 126.759 125.91 133.622 122.034C147.511 114.191 160.642 104.312 176.486 100.742C180.733 99.7858 185.096 99.4977 189.389 100.034C189.118 99.3221 188.846 98.6085 188.575 97.8968C188.445 97.5571 188.401 97.2432 188.405 96.9494C187.764 96.7524 187.137 96.5135 186.532 96.2112C186.369 96.1292 186.228 96.0349 186.098 95.9361C181.597 96.4069 177.243 94.1866 173.418 92.0135C168.157 89.0228 163.719 83.5043 157.178 84.526C156.488 84.6345 155.787 84.7062 155.087 84.7436C155.071 85.516 154.735 86.2916 153.944 86.847C144.369 93.5686 117.053 91.9605 118.805 75.5583C119.625 67.8816 128.317 63.8434 134.929 62.3619C141.916 60.7965 151.094 61.3764 155.194 68.1354C155.481 68.6088 155.585 69.0731 155.572 69.509C164.768 70.1794 172.771 76.1266 181.549 78.5232C184.845 74.62 189.195 73.2392 194.211 73.4866C198.786 73.7126 203.124 75.0443 207.715 74.2635C210.834 73.7339 214.394 72.9531 217.701 72.9557C216.793 71.4181 215.639 70.2123 214.224 69.4328C213.941 69.9611 213.464 70.4067 212.741 70.6386C205.928 72.822 187.474 70.8097 188.636 60.4148C189.323 54.2641 195.228 51.914 200.57 51.0732C205.893 50.2356 214.121 49.8933 218.078 54.3733C218.44 54.7827 218.63 55.2231 218.709 55.6642C229.534 59.2536 238.463 74.8867 228.734 83.536C228.654 83.607 228.571 83.6555 228.489 83.7142C228.098 87.241 225.423 89.9036 222.118 91.7565C222.323 92.0012 222.498 92.2912 222.617 92.647C227.778 108.044 233.924 123.546 242.661 137.303C253.396 138.546 263.879 143.571 272.147 150.159C273.362 151.127 274.542 152.143 275.686 153.198C283.044 149.223 295.711 146.491 299.371 156.437C301.935 163.405 296.241 170.422 289.853 173.182C291.817 178.006 293.004 183.142 293.19 188.484C294.229 218.21 263.048 245.138 234.358 244.895C234.144 244.926 233.914 244.921 233.673 244.885C233.605 244.884 233.539 244.884 233.472 244.883C232.998 244.869 232.6 244.745 232.261 244.556C229.815 244.083 227.038 244.498 224.603 244.358C221.216 244.164 217.794 243.191 214.577 242.182C207.142 239.847 199.961 236.052 194.17 230.816C190.986 227.938 188.341 224.616 186.093 221.02C176.064 233.303 160.355 238.724 144.822 240.028C136.852 240.696 129.215 239.57 122.618 234.82C117.195 230.914 112.97 225.563 108.352 220.74C104.337 226.996 99.1638 232.448 93.3025 237.011C91.8713 238.127 90.8452 238.685 90.7786 238.702C90.1535 239.008 88.4085 240.368 87.6568 240.818C86.0862 241.76 84.4594 242.602 82.8146 243.406C79.4525 245.048 75.9225 246.355 72.3253 247.377C65.6877 249.262 58.6504 249.833 51.7906 249.177C37.8489 247.845 25.1472 240.922 15.6687 230.746C11.839 226.635 8.61773 222.087 6.10491 217.216C5.64187 217.137 5.48815 216.644 5.64702 216.291C1.93297 208.761 -0.0967818 200.479 0.00331593 191.822ZM195.235 58.2617C194.438 58.923 193.875 59.7696 193.751 60.8733C193.589 62.3315 194.856 63.3642 196.402 64.0952C195.56 62.2767 195.097 60.2475 195.235 58.2617ZM196.652 57.373C196.165 59.9201 196.924 62.6086 198.245 64.8134C198.739 64.9723 199.217 65.1072 199.646 65.2209C198.171 62.7804 197.416 59.8135 197.629 56.9617C197.291 57.0824 196.967 57.2219 196.652 57.373ZM200.486 56.25C199.99 56.332 199.478 56.436 198.967 56.5625C198.587 59.7451 199.552 63.1808 201.5 65.6658C202.1 65.795 202.711 65.9132 203.338 66.0068C201.427 63.4649 200.164 59.5513 200.486 56.25ZM202.741 55.9697C202.448 55.9949 202.124 56.0278 201.786 56.0666C201.314 59.5436 203.037 64.0843 205.227 66.2193C205.687 66.2535 206.149 66.2781 206.609 66.2839C203.92 63.7233 203.215 59.6392 203.055 55.9432C202.951 55.9523 202.84 55.96 202.741 55.9697ZM206.144 55.7559C205.522 55.7714 204.915 55.8037 204.341 55.8431C204.458 58.9488 204.95 62.5272 206.977 64.8405C207.078 64.6261 207.196 64.4194 207.351 64.2347C206.233 61.9169 205.724 58.58 206.144 55.7559ZM208.228 55.7863C207.966 55.7721 207.704 55.7585 207.443 55.7534C207.09 57.891 207.358 60.4645 208.033 62.4788C208.217 61.4358 208.539 60.449 208.978 59.53C208.495 58.365 208.299 57.0695 208.228 55.7863ZM209.528 55.8993C209.575 56.6245 209.663 57.3504 209.84 58.0453C210.289 57.4021 210.802 56.8047 211.393 56.2719C210.8 56.0982 210.172 55.9813 209.528 55.8993ZM5.27569 189.352C5.21886 190.113 5.18462 190.87 5.1672 191.624C12.811 193.607 20.7518 193.999 28.5906 193.211C28.6513 191.735 28.8309 190.26 29.1396 188.807C21.067 188.912 13.4309 185.807 6.28765 182.295C5.79299 184.624 5.45199 186.984 5.27569 189.352ZM6.5783 181.003C13.7125 184.529 21.3531 187.7 29.4476 187.514C29.744 186.394 30.1089 185.29 30.5481 184.215C23.1161 180.893 15.69 175.066 11.5781 167.923C9.34817 172.037 7.66454 176.453 6.5783 181.003ZM12.315 166.606C16.2228 173.805 23.6405 179.741 31.0589 183.04C31.4754 182.148 31.9398 181.278 32.4538 180.438C32.6644 180.095 32.8827 179.761 33.1067 179.436C26.9936 173.639 20.9533 167.685 16.4165 160.559C14.9047 162.471 13.5388 164.496 12.315 166.606ZM79.1806 196.967C79.1573 197.49 79.1134 198.014 79.0579 198.541C89.9778 199.07 100.917 201.121 111.795 199.314C112.076 198.1 112.327 196.876 112.532 195.64C112.602 195.204 112.666 194.769 112.724 194.335C101.546 195.158 90.3976 196.788 79.1806 196.967ZM112.878 193.029C113.194 190.024 113.213 187.009 112.961 184.022C101.763 187.66 90.6224 191.516 79.1651 194.26C79.1967 194.729 79.2071 195.202 79.2109 195.675C90.4693 195.492 101.658 193.851 112.878 193.029ZM112.838 182.705C112.575 180.333 112.145 177.983 111.546 175.675C104.99 177.87 98.8067 180.961 92.5042 183.773C87.9545 185.804 82.7028 186.878 78.281 189.193C78.6362 190.418 78.8867 191.679 79.043 192.96C90.4983 190.201 101.639 186.339 112.838 182.705ZM83.1768 185.993C86.506 184.903 89.7208 183.61 92.9227 182.181C98.9772 179.478 104.909 176.539 111.206 174.429C110.402 171.629 109.364 168.894 108.097 166.264C102.647 169.503 97.7443 173.547 92.481 177.073C87.5612 180.37 82.0512 182.76 77.1482 186.071C77.4227 186.691 77.6694 187.322 77.8909 187.965C79.5855 187.154 81.3892 186.579 83.1768 185.993ZM90.9013 176.561C96.6154 172.988 101.722 168.553 107.52 165.107C106.315 162.758 104.935 160.496 103.381 158.355C93.9909 166.345 83.4067 172.973 74.7006 181.737C75.4058 182.746 76.0355 183.801 76.589 184.896C81.1522 181.814 86.2393 179.477 90.9013 176.561ZM102.61 157.319C101.438 155.787 100.175 154.319 98.8306 152.927C98.2829 152.359 97.7217 151.813 97.1489 151.288C90.5145 161.814 81.5268 170.609 71.6246 178.071C72.4506 178.895 73.214 179.773 73.9237 180.688C82.6486 171.946 93.2359 165.32 102.61 157.319ZM44.4852 142.906C42.3308 143.504 40.2042 144.201 38.1247 145.003C39.9982 153.847 39.7463 162.955 44.1333 171.091C45.0645 170.777 46.0177 170.519 46.9871 170.326C44.3147 161.463 44.4 152.126 44.4852 142.906ZM41.1981 172.32C41.7574 172.037 42.3269 171.772 42.9075 171.539C38.5884 163.389 38.7653 154.34 36.9086 145.49C33.6835 146.812 30.592 148.405 27.6968 150.28C30.4182 158.473 35.865 165.572 41.1981 172.32ZM26.5854 151.008C24.792 152.238 23.0877 153.593 21.4861 155.066C27.071 161.442 31.0886 169.043 36.3442 175.696C37.4976 174.633 38.7382 173.71 40.0556 172.941C34.7361 166.206 29.3688 159.148 26.5854 151.008ZM48.2742 170.108C49.786 169.892 51.3282 169.813 52.884 169.875C52.1503 160.368 52.4823 150.796 51.4929 141.311C49.5794 141.654 47.6716 142.073 45.7788 142.56C45.6909 151.821 45.5657 161.205 48.2742 170.108ZM54.1794 169.95C54.7581 170.001 55.3354 170.071 55.9147 170.158C56.3655 164.638 56.6303 159.103 57.3911 153.612C58.002 149.207 58.6827 144.239 60.8293 140.174C60.6298 140.187 60.4309 140.197 60.2313 140.211C57.7572 140.391 55.2534 140.685 52.7516 141.092C53.7455 150.677 53.4277 160.344 54.1794 169.95ZM58.549 154.636C57.8676 159.866 57.6203 165.134 57.1876 170.386C57.9697 170.543 58.7498 170.73 59.5248 170.956C62.378 160.551 65.8802 149.416 72.0289 140.437C68.8263 140.064 65.5734 139.963 62.3244 140.097C59.7941 144.328 59.1593 149.952 58.549 154.636ZM60.7576 171.343C61.0683 171.448 61.3802 171.558 61.6889 171.675C62.079 171.822 62.4619 171.979 62.8417 172.143C71.7467 164.091 77.4983 153.178 84.3122 143.404C80.8384 142.061 77.1908 141.156 73.462 140.623C67.1576 149.619 63.6399 160.825 60.7576 171.343ZM64.1145 172.725C64.9147 173.116 65.6929 173.545 66.4472 174.003C75.8075 166.144 83.9473 156.68 90.4809 146.361C88.8864 145.425 87.2357 144.607 85.5424 143.894C78.7104 153.661 72.9472 164.591 64.1145 172.725ZM67.5819 174.732C68.6785 175.475 69.7143 176.293 70.6843 177.172C80.5794 169.751 89.5729 160.957 96.1634 150.435C94.7013 149.182 93.1765 148.04 91.5833 147.033C85.0484 157.355 76.9241 166.848 67.5819 174.732ZM67.8247 181.477C60.5155 174.267 47.8124 172.14 39.9052 179.419C33.6169 185.208 31.8442 195.29 35.7765 202.848C40.8997 212.69 58.124 217.515 66.7507 209.906C67.2215 209.491 67.7324 209.286 68.2361 209.239C75.7184 201.023 76.0704 189.61 67.8247 181.477ZM33.8759 178.386C34.3674 177.755 34.884 177.161 35.4232 176.599C30.1645 169.94 26.143 162.329 20.5523 155.954C19.3995 157.077 18.3068 158.26 17.2748 159.492C21.7483 166.65 27.7737 172.599 33.8759 178.386ZM16.8389 137.05C13.7681 138.732 11.8384 142.357 11.4535 145.756C11.3424 146.749 11.5207 147.603 11.8913 148.352C12.7606 147.802 13.604 147.215 14.4352 146.595C15.1036 146.096 15.7455 147.218 15.0874 147.71C14.275 148.316 13.4516 148.891 12.6037 149.43C13.108 150.026 13.739 150.545 14.4235 151.009C15.6822 150.438 16.5695 149.37 17.2154 148.117C17.5977 147.377 18.7117 148.03 18.3313 148.77C17.6965 150.001 16.8195 151.067 15.6874 151.784C16.0594 151.994 16.4339 152.196 16.8033 152.387C26.0248 143.244 38.3126 138.736 50.9885 136.287C51.066 136.272 51.1442 136.26 51.2223 136.245C47.3991 136.019 43.5772 135.791 39.7541 135.571C32.5914 135.158 23.4674 133.416 16.8389 137.05ZM25.8789 114.066C22.9237 117.161 18.8628 125.4 21.727 129.489C21.873 129.697 21.9776 129.904 22.0531 130.108C23.935 129.834 25.8524 129.705 27.7873 129.673C26.856 128.468 25.9293 127.258 24.9593 126.082C24.4342 125.446 25.3422 124.527 25.8724 125.169C27.0872 126.64 28.2296 128.168 29.4056 129.669C30.8257 129.682 32.2511 129.738 33.6776 129.822C32.9686 128.987 32.2989 128.122 31.6395 127.244C31.1403 126.577 32.2621 125.935 32.7554 126.592C33.6273 127.754 34.5217 128.887 35.5156 129.943C36.3093 130.001 37.0998 130.062 37.8903 130.127C37.2483 129.206 36.6348 128.263 35.9393 127.373C35.433 126.726 36.3403 125.805 36.8524 126.46C37.8147 127.691 38.6258 129.031 39.5726 130.268C40.8422 130.378 42.1035 130.487 43.3531 130.584C42.3005 129.519 41.2697 128.436 40.3592 127.243C39.8542 126.581 40.9759 125.938 41.4751 126.591C42.5065 127.94 43.7277 129.136 44.9263 130.334C45.0439 130.452 45.0878 130.58 45.1013 130.709C45.3861 130.728 45.6729 130.748 45.9551 130.765C46.2773 130.783 46.5996 130.8 46.9212 130.818C45.8853 129.622 44.9657 128.341 44.2346 126.92C43.8549 126.18 44.9709 125.526 45.3506 126.268C46.2451 128.008 47.4243 129.515 48.7663 130.92C49.5186 130.961 50.271 131.004 51.0234 131.045C50.2026 129.815 49.4457 128.54 48.5344 127.372C48.0288 126.724 48.9361 125.803 49.4476 126.459C50.612 127.951 51.5323 129.61 52.6456 131.135C53.3941 131.175 54.1433 131.219 54.8924 131.259C54.0742 129.977 53.161 128.783 52.0864 127.694C51.5013 127.101 52.4144 126.188 52.9995 126.781C54.2899 128.088 55.3794 129.541 56.3293 131.11C56.3778 131.189 56.3991 131.266 56.4139 131.343C57.0042 131.375 57.5958 131.41 58.1867 131.441C57.3226 130.432 56.5541 129.353 55.8592 128.21C55.4265 127.495 56.5444 126.846 56.9751 127.557C57.8515 129.003 58.8467 130.332 60.0279 131.543C60.5916 131.572 61.1555 131.607 61.7192 131.637C60.9449 130.498 60.1312 129.386 59.4124 128.21C58.9772 127.497 60.0957 126.848 60.5284 127.557C61.4009 128.984 62.407 130.32 63.3183 131.72C64.1811 131.764 65.0439 131.813 65.9079 131.855C65.091 130.784 64.3115 129.688 63.6102 128.532C63.1775 127.818 64.2954 127.169 64.7261 127.88C65.5902 129.302 66.5692 130.636 67.5974 131.941C68.2568 131.972 68.9187 132.011 69.5787 132.041C68.9439 130.721 68.2871 129.403 67.2629 128.339C66.6855 127.739 67.5993 126.824 68.176 127.426C69.4709 128.772 70.2303 130.453 71.0415 132.109C71.5336 132.13 72.0244 132.156 72.5158 132.176C71.872 131.027 71.0001 130.025 70.3912 128.854C70.0075 128.116 71.1229 127.463 71.5071 128.202C72.1581 129.452 73.1171 130.502 73.7674 131.754C73.8559 131.923 73.8585 132.085 73.8152 132.229C74.8782 132.272 75.9399 132.323 77.0029 132.36C78.2622 132.406 79.5248 132.466 80.7893 132.535C80.3618 131.679 79.9342 130.823 79.5061 129.967C79.054 130.569 78.4457 131.026 77.6978 131.265C77.8392 131.821 77.1179 132.404 76.6283 131.891C76.5011 131.758 76.3939 131.61 76.2867 131.463C75.2812 131.426 74.3202 131.042 73.5479 130.346C71.8113 128.783 72.3789 126.077 73.7765 124.538C74.4791 123.765 75.555 123.324 76.5903 123.319C78.0524 123.314 79.1244 124.222 79.9407 125.332C80.2772 125.788 80.365 126.341 80.2888 126.882C80.3818 127.438 80.3572 128.016 80.2229 128.523C80.2229 128.524 80.2242 128.524 80.2242 128.525L82.1616 132.4C82.1997 132.475 82.2114 132.547 82.221 132.617C82.9792 132.661 83.7361 132.703 84.4949 132.749C83.8039 131.713 83.2208 130.617 82.6615 129.501C82.2908 128.758 83.4042 128.103 83.7774 128.848C84.4497 130.192 85.1466 131.509 86.0378 132.723C86.0681 132.763 86.092 132.805 86.1107 132.845C86.3329 132.858 86.5538 132.871 86.7746 132.885C86.1275 131.6 85.4533 130.34 84.5989 129.177C84.1049 128.505 85.2279 127.862 85.7149 128.525C86.6067 129.738 87.3029 131.056 87.9752 132.4C88.0766 132.601 88.0624 132.794 87.9881 132.956C88.3498 132.977 88.7095 133 89.0711 133.02C89.241 131.381 88.652 129.931 87.8292 128.531C87.4075 127.811 88.5235 127.162 88.9452 127.879C89.9178 129.536 90.4893 131.199 90.3414 133.092C90.3692 133.094 90.397 133.096 90.4247 133.097C90.5339 132.861 90.6695 132.628 90.8665 132.406C91.8642 131.281 92.8581 130.057 93.3199 128.606C93.6195 127.669 93.4775 127.377 93.0267 126.695C91.8733 124.956 87.9274 124.187 85.7846 123.736C77.8141 122.058 69.4141 122.275 61.3111 122.208C58.6491 122.186 55.9522 122.24 53.3031 121.947C48.5267 121.42 44.5769 118.499 40.819 115.731C36.0665 112.241 30.8348 108.876 25.8789 114.066ZM101.396 117.817C98.2325 115.952 94.3525 115.989 90.7877 115.892C86.194 115.766 81.594 116.08 77.0003 116.149C69.3553 116.264 62.0383 114.123 54.7465 112.085C50.302 110.843 45.6109 109.598 40.9637 109.452C43.7968 111.344 46.4569 113.633 49.3113 115.264C52.543 117.11 54.5346 116.949 58.1854 117.011C67.0381 117.164 75.9044 117.015 84.6874 118.322C90.6863 119.215 99.9898 121.734 98.3804 129.66C98.115 130.966 97.4782 132.19 96.7013 133.326C98.0278 133.345 99.3498 133.327 100.67 133.29C100.575 133.241 100.486 133.168 100.415 133.057C99.7657 132.035 99.4499 130.848 98.8002 129.828C98.3533 129.123 99.4699 128.475 99.9162 129.176C100.566 130.196 100.882 131.383 101.531 132.405C101.759 132.765 101.58 133.109 101.29 133.266C101.91 133.245 102.53 133.231 103.149 133.196C103.059 133.125 102.98 133.035 102.934 132.902C102.558 131.816 102.012 130.788 101.385 129.828C100.927 129.128 102.046 128.482 102.501 129.176C103.19 130.23 103.768 131.368 104.181 132.559C104.267 132.807 104.195 133.003 104.057 133.14C104.191 133.131 104.323 133.126 104.456 133.116C104.475 132.832 104.542 132.55 104.658 132.278C104.094 131.361 103.592 130.407 103.002 129.505C102.545 128.804 103.663 128.159 104.118 128.852C104.618 129.617 105.052 130.42 105.516 131.206C105.542 131.186 105.566 131.165 105.593 131.146C111.692 126.847 105.97 120.512 101.396 117.817ZM147.754 119.592C140.578 123.991 133.39 128.343 125.803 132.011C117.206 136.167 108.567 138.461 98.9978 138.493C94.2821 138.508 89.5432 138.304 84.8043 138.048C86.9703 138.814 89.0982 139.716 91.1707 140.793C104.281 147.607 113.428 161.221 116.837 175.366C117.089 176.407 117.301 177.454 117.484 178.505C119.285 177.292 120.832 175.785 122.368 174.251C122.957 173.662 123.87 174.575 123.281 175.164C122.122 176.322 120.949 177.463 119.679 178.484C122.357 178.274 124.856 177.693 127.189 176.805C128.866 175.257 129.957 173.389 130.381 171.091C130.533 170.271 131.777 170.62 131.627 171.434C131.344 172.966 130.763 174.349 129.938 175.582C131.295 174.893 132.595 174.103 133.84 173.221C133.763 173.058 133.76 172.861 133.891 172.659C135.576 170.064 136.78 167.267 137.27 164.202C137.401 163.382 138.647 163.731 138.515 164.545C138.12 167.011 137.264 169.324 136.083 171.495C137.881 169.999 139.566 168.326 141.149 166.525C141.144 166.421 141.157 166.314 141.21 166.201C142.408 163.705 142.819 161.098 142.844 158.347C142.852 157.514 144.144 157.514 144.136 158.347C144.119 160.196 143.925 161.979 143.473 163.712C144.512 162.376 145.509 160.995 146.467 159.584C146.32 159.4 146.255 159.148 146.377 158.882C147.807 155.774 147.63 152.387 148.464 149.134C148.671 148.328 149.917 148.67 149.71 149.478C149.107 151.827 148.99 154.191 148.48 156.499C149.783 154.425 151.016 152.323 152.192 150.254C151.981 150.119 151.837 149.879 151.909 149.567C152.348 147.648 152.316 145.667 152.316 143.71C152.317 142.878 153.609 142.878 153.608 143.71C153.608 145.141 153.609 146.578 153.46 148C153.55 147.84 153.641 147.678 153.73 147.518C154.519 146.102 155.293 144.695 156.076 143.302C156.169 141.864 156.191 140.423 156.191 138.975C156.192 138.142 157.483 138.142 157.483 138.975C157.483 139.611 157.478 140.245 157.467 140.877C158.063 139.856 158.668 138.845 159.302 137.857C159.793 135.827 160.043 133.756 160.067 131.656C160.076 130.823 161.368 130.822 161.358 131.656C161.345 132.846 161.259 134.031 161.104 135.205C161.844 134.178 162.612 133.173 163.439 132.209C163.726 130.459 163.921 128.701 163.941 126.919C163.951 126.087 165.243 126.086 165.232 126.919C165.219 128.125 165.124 129.322 164.98 130.513C166.033 129.426 167.166 128.394 168.403 127.429C168.839 125.967 169.385 124.539 170.057 123.149C170.42 122.4 171.533 123.055 171.173 123.801C170.799 124.573 170.474 125.36 170.182 126.159C170.86 125.726 171.547 125.335 172.243 124.992C172.667 123.433 173.006 121.844 173.437 120.29C173.659 119.487 174.905 119.828 174.682 120.632C174.343 121.857 174.054 123.096 173.741 124.325C174.499 124.019 175.264 123.75 176.04 123.524C176.48 122.454 176.886 121.368 177.312 120.29C177.615 119.523 178.864 119.857 178.557 120.632C178.231 121.46 177.915 122.292 177.589 123.119C178.22 122.975 178.854 122.842 179.493 122.736C180.346 121.28 180.987 119.71 181.617 118.137C181.924 117.373 183.173 117.706 182.864 118.48C182.317 119.842 181.772 121.209 181.097 122.507C181.419 122.467 181.742 122.431 182.066 122.398C182.848 120.869 183.675 119.373 184.696 117.982C185.185 117.319 186.306 117.962 185.812 118.634C184.964 119.787 184.252 121.013 183.587 122.27C184.558 122.2 185.535 122.151 186.516 122.116C187.256 120.685 188.043 119.288 189.003 117.983C189.49 117.319 190.611 117.963 190.118 118.635C189.316 119.727 188.637 120.885 188.001 122.071C188.368 122.062 188.737 122.052 189.103 122.044C189.601 120.804 190.323 119.674 191.257 118.713C191.838 118.115 192.75 119.028 192.17 119.626C191.491 120.325 190.926 121.13 190.509 122.009C191.26 121.991 192.012 121.971 192.763 121.943C193.208 120.96 193.744 120.018 194.105 118.997C194.38 118.218 195.628 118.553 195.35 119.34C195.04 120.219 194.601 121.041 194.2 121.879C195.301 121.823 196.398 121.746 197.492 121.629C195.541 116.286 193.541 110.961 191.526 105.65C176.158 102.029 160.291 111.907 147.754 119.592ZM119.546 208.79C118.465 209.902 117.64 211.211 117.045 212.641C118.291 212.872 119.586 213.018 120.907 213.075C120.818 212.907 120.797 212.705 120.92 212.489C122.012 210.595 123.213 208.763 124.208 206.813C124.586 206.072 125.7 206.725 125.323 207.466C124.334 209.404 123.142 211.228 122.054 213.109C123.075 213.114 124.109 213.069 125.14 212.969C125.789 211.157 126.633 209.43 127.493 207.709C127.865 206.965 128.979 207.617 128.609 208.361C127.881 209.819 127.166 211.281 126.581 212.799C127.35 212.688 128.119 212.556 128.879 212.386C129.584 210.915 130.192 209.412 130.715 207.864C130.979 207.078 132.228 207.415 131.961 208.206C131.526 209.492 131.036 210.749 130.485 211.985C131.331 211.745 132.163 211.468 132.972 211.151C133.231 209.76 133.47 208.364 133.703 206.967C133.84 206.146 135.086 206.496 134.95 207.31C134.77 208.39 134.586 209.468 134.393 210.545C134.983 210.271 135.564 209.984 136.123 209.666C136.218 208.358 136.438 207.059 136.692 205.773C136.853 204.955 138.099 205.302 137.939 206.116C137.762 207.01 137.607 207.906 137.502 208.81C138.507 208.128 139.438 207.37 140.271 206.525V202.144C140.271 201.311 141.563 201.311 141.563 202.144V205.042C142.516 203.805 143.284 202.429 143.809 200.902C139.995 199.066 137.26 195.013 136.767 190.748C135.723 181.731 144.863 176.427 153.189 173.631C153.26 172.639 153.404 171.655 153.704 170.686C153.95 169.893 155.197 170.232 154.95 171.029C154.727 171.747 154.6 172.47 154.523 173.199C154.824 173.106 155.123 173.017 155.419 172.93C155.647 171.866 155.899 170.802 156.172 169.743C155.971 167.45 156.078 165.147 156.498 162.864C156.648 162.045 157.894 162.394 157.744 163.207C157.612 163.922 157.514 164.64 157.449 165.361C158.061 163.464 158.747 161.585 159.515 159.743C159.28 157.5 159.268 155.243 159.268 152.98C159.268 152.147 160.559 152.147 160.56 152.98C160.56 154.397 160.56 155.814 160.619 157.226C161.103 156.185 161.603 155.151 162.14 154.137C162.58 151.657 162.734 149.139 163.201 146.663C163.356 145.845 164.601 146.192 164.448 147.006C164.192 148.357 164.031 149.72 163.868 151.082C164.667 149.76 165.511 148.466 166.411 147.211C166.511 145.789 166.531 144.363 166.532 142.923C166.532 142.091 167.824 142.091 167.823 142.923C167.823 143.743 167.813 144.557 167.789 145.369C168.672 144.239 169.6 143.143 170.573 142.084C170.759 141.883 170.952 141.695 171.141 141.501C171.377 140.499 171.539 139.482 171.559 138.454C171.576 137.622 172.867 137.62 172.851 138.454C172.841 138.96 172.799 139.464 172.735 139.965C173.623 139.171 174.542 138.432 175.491 137.75C175.989 136.357 176.577 134.994 177.234 133.658C177.601 132.911 178.715 133.565 178.349 134.311C177.997 135.027 177.674 135.753 177.368 136.487C178.122 136.016 178.891 135.571 179.673 135.155C180.198 133.986 180.744 132.829 181.079 131.579C181.294 130.775 182.541 131.116 182.325 131.922C182.108 132.728 181.804 133.495 181.475 134.25C182.368 133.83 183.27 133.429 184.19 133.064C184.786 131.8 185.632 130.666 186.108 129.343C186.387 128.566 187.636 128.9 187.353 129.686C187.007 130.652 186.463 131.515 185.962 132.4C187.172 131.97 188.398 131.578 189.639 131.22C190.377 129.826 191.319 128.509 192.419 127.382C193.002 126.785 193.914 127.7 193.332 128.296C192.613 129.033 191.98 129.857 191.424 130.728C192.836 130.358 194.26 130.017 195.692 129.704C196.058 128.974 196.422 128.243 196.787 127.513C197.16 126.768 198.274 127.422 197.903 128.165C197.702 128.564 197.503 128.963 197.304 129.362C198.227 129.172 199.152 128.985 200.078 128.808C199.813 128.059 199.548 127.309 199.281 126.561C188.994 127.759 178.333 125.515 169.827 132.869C162.952 138.813 159.491 148.081 154.984 155.754C146.791 169.703 135.501 183.393 118.14 183.73C118.829 193.219 116.97 202.808 113.207 211.566C114.023 211.882 114.885 212.147 115.777 212.364C115.78 212.356 115.78 212.349 115.784 212.342C116.468 210.68 117.382 209.166 118.639 207.874C119.214 207.279 120.127 208.193 119.546 208.79ZM202.178 182.913L200.998 184.093C201.328 184.772 201.617 185.498 201.87 186.272C201.952 186.521 202.023 186.772 202.093 187.025C202.482 186.744 202.825 186.405 203.102 186.005C203.573 185.326 204.694 185.971 204.217 186.657C203.732 187.356 203.12 187.904 202.417 188.326C202.541 188.883 202.652 189.445 202.759 190.008C203.101 189.852 203.448 189.707 203.811 189.583C204.602 189.314 204.939 190.563 204.154 190.828C203.754 190.965 203.375 191.131 203.005 191.315C203.196 192.305 203.4 193.29 203.682 194.245C204.541 193.692 205.416 193.16 206.241 192.555C206.913 192.06 207.556 193.183 206.893 193.671C205.996 194.33 205.041 194.898 204.111 195.505C204.389 196.218 204.726 196.909 205.153 197.568C206.377 196.651 207.6 195.733 208.824 194.816C209.491 194.316 210.133 195.438 209.476 195.931C208.293 196.818 207.109 197.706 205.926 198.594C206.432 199.17 207.024 199.662 207.687 200.073C209.258 198.978 210.787 197.823 212.376 196.753C213.069 196.286 213.715 197.406 213.029 197.868C211.654 198.794 210.327 199.785 208.979 200.744C209.729 201.061 210.538 201.299 211.386 201.458C213.068 200.151 214.438 198.484 215.798 196.853C216.332 196.213 217.241 197.132 216.711 197.766C215.574 199.13 214.427 200.487 213.117 201.672C213.977 201.73 214.858 201.723 215.745 201.646C217.108 200.096 218.356 198.448 219.673 196.853C220.204 196.211 221.112 197.13 220.586 197.766C219.597 198.964 218.643 200.189 217.655 201.385C218.628 201.199 219.591 200.94 220.517 200.609C221.593 199.072 222.722 197.573 223.77 196.016C224.233 195.33 225.351 195.976 224.885 196.668C224.221 197.655 223.523 198.619 222.826 199.582C225.933 197.916 228.255 195.349 228.533 192.134C228.728 189.88 226.99 187.639 224.955 186.817C223.124 186.077 220.957 187.092 219.266 187.77C215.882 189.126 212.157 190.821 208.576 189.021C204.306 186.878 202.815 182.247 201.48 177.996C199.83 172.738 196.04 167.874 190.505 169.372C192.203 171.722 192.992 174.554 192.417 177.628C192.869 177.465 193.406 177.463 194.016 177.708C194.07 177.73 194.121 177.753 194.174 177.775C194.398 177.008 194.673 176.252 194.967 175.506C195.269 174.739 196.518 175.073 196.212 175.849C195.894 176.656 195.585 177.479 195.352 178.321C195.781 178.544 196.189 178.783 196.578 179.035C196.881 178.433 197.235 177.858 197.615 177.288C198.074 176.599 199.193 177.245 198.73 177.94C198.326 178.547 197.95 179.157 197.644 179.803C198.725 180.68 199.62 181.712 200.354 182.914C200.659 182.61 200.963 182.306 201.267 182.001C201.855 181.41 202.768 182.323 202.178 182.913ZM244.596 191.294C243.384 199.821 236.91 204.082 228.523 203.121C228.077 203.07 227.697 202.924 227.371 202.72C224.7 204.46 221.46 205.61 218.218 206.194C223.017 209.801 228.748 211.63 234.893 210.282C241.169 208.906 246.612 204.578 250.253 199.399C253.622 194.607 255.828 188.434 254.549 182.56C253.206 176.387 247.981 172.968 242.354 171.155C244.243 177.7 245.54 184.655 244.596 191.294ZM235.025 142.23C233.856 142.321 232.697 142.467 231.556 142.681C232.964 146.055 234.393 149.43 235.778 152.822C235.068 149.25 234.778 145.627 235.025 142.23ZM234.728 164.37C231.599 155.552 227.714 146.949 224.201 138.281C218.558 124.359 212.786 110.456 206.136 96.9798C205.403 96.8105 204.671 96.6394 203.938 96.4721C203.409 96.5548 202.881 96.6323 202.352 96.7143C203.194 97.2135 204.041 97.6733 204.761 98.3689C205.362 98.9475 204.448 99.8607 203.848 99.2821C203.032 98.4948 202.012 98.0563 201.073 97.4454C200.876 97.3182 200.79 97.1373 200.778 96.9546C200.649 96.9733 200.519 96.9946 200.39 97.014C200.014 97.0676 199.628 97.1199 199.243 97.1722C200.276 97.7696 201.306 98.3708 202.371 98.9133C203.112 99.2917 202.459 100.406 201.719 100.029C200.14 99.2239 198.632 98.292 197.082 97.4325C196.056 97.5384 195.016 97.6165 193.979 97.6333C194.026 97.7605 194.076 97.889 194.125 98.0169C195.76 98.7234 197.291 99.6127 198.819 100.528C199.532 100.956 198.884 102.074 198.167 101.644C197.053 100.977 195.936 100.302 194.774 99.7212C195.439 101.471 196.105 103.223 196.77 104.975C197.724 105.303 198.656 105.692 199.633 105.953C200.437 106.168 200.096 107.414 199.29 107.199C198.636 107.025 198.002 106.792 197.368 106.559C197.703 107.442 198.034 108.328 198.368 109.213C198.9 109.295 199.431 109.381 199.956 109.505C200.767 109.698 200.423 110.944 199.613 110.751C199.374 110.694 199.133 110.649 198.893 110.604C199.242 111.535 199.589 112.468 199.937 113.399C200.745 113.85 201.545 114.318 202.372 114.736C203.114 115.113 202.46 116.228 201.719 115.852C201.354 115.666 200.993 115.469 200.634 115.27C201.006 116.273 201.375 117.277 201.744 118.28C202.774 118.686 203.731 119.242 204.632 119.903C205.295 120.391 204.652 121.513 203.98 121.019C203.463 120.64 202.93 120.301 202.377 120.003C202.869 121.349 203.356 122.696 203.841 124.045C204.864 124.593 205.858 125.191 206.893 125.716C207.636 126.093 206.981 127.208 206.241 126.832C205.65 126.532 205.072 126.207 204.496 125.881C204.791 126.709 205.078 127.54 205.371 128.37C206.228 128.548 207.043 128.866 207.862 129.268C208.608 129.636 207.954 130.75 207.209 130.383C206.77 130.168 206.332 129.99 205.887 129.844C206.093 130.434 206.304 131.023 206.508 131.613C207.299 131.855 208.076 132.134 208.83 132.497C209.579 132.86 208.925 133.973 208.178 133.613C207.805 133.433 207.422 133.282 207.036 133.142C207.535 134.599 208.028 136.059 208.514 137.52C209.202 137.894 209.871 138.306 210.612 138.567C211.393 138.842 211.057 140.09 210.269 139.813C209.864 139.67 209.482 139.488 209.105 139.295C209.463 140.383 209.81 141.473 210.16 142.563C210.569 142.66 210.983 142.732 211.41 142.742C212.241 142.761 212.243 144.053 211.41 144.033C211.14 144.027 210.875 144.003 210.613 143.964C210.761 144.434 210.904 144.904 211.052 145.373C212.105 145.475 213.084 145.792 213.997 146.382C214.694 146.832 214.046 147.951 213.345 147.497C212.745 147.11 212.132 146.868 211.476 146.736C211.785 147.73 212.083 148.726 212.384 149.723C213.606 150.002 214.795 150.351 215.934 150.903C216.683 151.266 216.028 152.38 215.282 152.019C214.489 151.635 213.661 151.372 212.818 151.155C213.058 151.961 213.29 152.77 213.525 153.578C214.707 153.746 215.897 153.846 217.071 154.068C217.89 154.222 217.542 155.467 216.728 155.314C215.797 155.139 214.856 155.037 213.917 154.922C214.197 155.899 214.47 156.877 214.741 157.857C215.813 158.149 216.862 158.49 217.872 158.977C218.621 159.34 217.966 160.453 217.219 160.093C216.546 159.768 215.847 159.523 215.138 159.311C215.421 160.354 215.688 161.402 215.961 162.448C216.008 162.453 216.051 162.447 216.101 162.463C217.17 162.812 218.262 163.083 219.33 163.432C220.119 163.689 219.782 164.937 218.988 164.678C218.111 164.392 217.221 164.151 216.337 163.883C216.655 165.123 216.96 166.365 217.263 167.608H220.128C220.961 167.608 220.961 168.899 220.128 168.899H217.575C217.808 169.879 218.036 170.858 218.258 171.84C219.182 171.92 220.065 172.181 220.946 172.475C221.733 172.736 221.395 173.984 220.603 173.72C219.928 173.496 219.252 173.269 218.553 173.161C218.778 174.17 218.988 175.181 219.201 176.191C220.099 176.484 220.999 176.763 221.914 176.995C222.722 177.199 222.379 178.446 221.571 178.241C220.878 178.065 220.193 177.859 219.511 177.646C219.598 178.072 219.676 178.501 219.761 178.928C220.489 178.958 221.21 179.037 221.915 179.256C222.709 179.501 222.37 180.749 221.572 180.501C221.057 180.342 220.539 180.271 220.016 180.237C220.129 180.82 220.249 181.403 220.357 181.988C221.23 181.737 222.124 181.543 223.073 181.436C223.323 181.409 223.571 181.405 223.818 181.402C223.867 181.349 223.922 181.298 224.001 181.258C224.658 180.928 225.276 180.584 225.807 180.067C226.405 179.487 227.318 180.399 226.72 180.98C226.458 181.236 226.175 181.454 225.882 181.657C226.649 181.859 227.393 182.177 228.097 182.579C228.867 182.343 229.647 182.158 230.462 182.138C231.295 182.119 231.293 183.411 230.462 183.429C230.137 183.438 229.822 183.485 229.508 183.548C230.302 184.189 231.012 184.946 231.617 185.771C231.994 185.694 232.37 185.616 232.719 185.456C233.47 185.111 234.127 186.223 233.372 186.571C233.04 186.723 232.688 186.801 232.336 186.874C233.028 188.086 233.486 189.397 233.62 190.703C233.626 190.765 233.626 190.823 233.631 190.883C234.302 190.95 234.954 191.163 235.628 191.18C236.459 191.203 236.462 192.495 235.628 192.472C234.969 192.455 234.331 192.251 233.68 192.181C233.673 192.878 233.603 193.547 233.486 194.193C234.037 194.599 234.695 194.845 235.308 195.144C236.056 195.509 235.402 196.624 234.656 196.26C234.151 196.013 233.645 195.79 233.168 195.516C232.886 196.437 232.497 197.301 232.008 198.105C234.03 197.982 235.945 197.394 237.443 195.802C239.427 193.693 239.68 190.219 239.726 187.492C239.861 179.637 237.325 171.685 234.728 164.37ZM175.538 159.493C174.438 158.376 173.153 157.386 171.877 156.833C168.514 161.044 165.406 165.446 162.053 169.662C163.668 168.806 165.323 167.955 167.014 167.174C170.073 164.858 173.007 162.396 175.538 159.493ZM171.325 165.39C173.592 164.571 175.885 163.952 178.169 163.674C178.234 163.622 178.304 163.579 178.373 163.531C178.037 162.649 177.329 161.535 176.412 160.45C174.848 162.239 173.133 163.866 171.325 165.39ZM170.559 156.429C169.824 156.307 169.116 156.374 168.475 156.703C167.74 157.08 167.026 157.088 166.413 156.862C164.69 160.239 163.299 163.807 162.189 167.411C165.014 163.778 167.703 160.039 170.559 156.429ZM182.277 159.809C188.444 152.455 195.874 146.316 204.605 142.126C203.691 139.319 202.755 136.518 201.793 133.726C191.941 135.605 182.357 137.767 174.93 145.012C172.972 146.922 171.231 149.054 169.678 151.335C174.641 151.332 179.761 155.423 182.277 159.809ZM190.413 164.191C189.513 163.244 188.667 162.237 187.897 161.179C186.852 162.335 185.834 163.517 184.865 164.747C185.346 164.986 185.811 165.244 186.259 165.518C187.626 164.856 189.02 164.416 190.413 164.191ZM188.411 185.039H195.637C194.927 184.042 193.971 183.223 192.64 182.687C191.883 182.381 191.397 181.843 191.14 181.227C191.02 181.456 190.899 181.684 190.764 181.913C190.101 183.046 189.304 184.083 188.411 185.039ZM210.724 174.003C211.419 173.569 212.161 173.199 212.965 172.922C207.598 166.443 202.847 158.148 201.677 149.613C198.947 151.296 196.375 153.199 193.948 155.275C195.772 158.901 198.141 162.26 200.712 165.382C203.44 168.695 206.751 172.136 210.724 174.003ZM203.979 170.75C205.203 173.011 205.838 175.581 206.685 178.018C207.488 176.817 208.438 175.737 209.541 174.842C207.508 173.777 205.67 172.34 203.979 170.75ZM209.598 183.411C209.712 183.539 209.817 183.672 209.939 183.796C211.443 185.313 213.707 184.484 215.461 183.785C215.104 181.828 214.721 179.876 214.318 177.932C211.982 178.902 210.633 181.119 209.598 183.411ZM212.663 170.491C210.801 162.612 208.607 154.818 206.19 147.089C205.066 147.655 203.967 148.257 202.888 148.888C203.798 156.676 207.872 164.325 212.663 170.491ZM192.94 156.147C191.499 157.431 190.114 158.783 188.786 160.195C189.763 161.563 190.863 162.856 192.057 164.029C194.723 163.93 197.339 164.635 199.689 166.169C197.098 163.115 194.754 159.737 192.94 156.147ZM196.374 186.331H187.191C187.161 186.331 187.14 186.317 187.11 186.316C185.076 188.147 182.66 189.648 180.099 190.906C180.235 191.129 180.353 191.375 180.426 191.673C180.694 192.77 180.976 193.868 181.263 194.968C186.843 194.524 191.988 192.42 197.353 190.876C197.475 190.841 197.582 190.848 197.681 190.873C197.379 189.279 197.022 187.703 196.374 186.331ZM176.657 197.752C174.291 196.902 171.964 195.943 169.583 195.133C169.473 195.095 169.39 195.037 169.322 194.966C168.976 195.071 168.627 195.179 168.288 195.279C167.805 195.423 167.32 195.401 166.875 195.26C166.833 195.294 166.785 195.325 166.742 195.356C171.151 199.98 175.833 204.332 180.237 208.958C178.838 205.278 177.676 201.504 176.657 197.752ZM176.254 196.24C175.974 195.172 175.702 194.105 175.444 193.046C175.432 193.002 175.434 192.962 175.425 192.918C174.022 193.449 172.622 193.924 171.253 194.364C172.927 194.971 174.584 195.623 176.254 196.24ZM170.879 189.04C175.449 187.481 179.937 185.477 183.608 182.354C185.882 180.419 188.097 177.48 187.496 174.325C186.901 171.197 183.626 169.486 180.68 168.598C180.495 168.644 180.298 168.672 180.087 168.68C176.549 168.801 172.938 170.476 169.744 171.863C168.236 172.518 166.748 173.218 165.269 173.941C169.491 177.024 171.251 183.389 170.879 189.04ZM159.236 177.265C156.083 178.051 153.002 179.117 150.08 180.545C146.789 182.152 142.295 184.839 141.852 188.897C141.255 194.371 146.324 197.458 151.099 196.418C155.91 195.371 160.229 192.553 164.762 190.728C165.017 190.626 165.256 190.579 165.486 190.555C166.472 185.285 165.176 177.544 159.236 177.265ZM123.901 76.5438C123.834 78.4851 124.598 80.0137 125.811 81.2143C124.923 79.18 124.385 76.9927 124.255 74.784C124.053 75.3381 123.924 75.9226 123.901 76.5438ZM125.542 72.6425C125.286 76.1841 126.259 79.8484 128.112 82.885C129.203 83.4785 130.412 83.9377 131.618 84.2858C129.249 80.6757 127.027 75.5441 127.104 71.1778C126.521 71.6247 125.998 72.1155 125.542 72.6425ZM128.458 70.2614C127.929 74.9584 130.877 81.1943 133.503 84.7482C134.2 84.8902 134.875 84.9994 135.498 85.0775C136.085 85.1505 136.689 85.2112 137.305 85.2564C134.172 80.77 130.987 74.6787 130.972 68.9918C130.112 69.3573 129.258 69.7803 128.458 70.2614ZM134.127 67.8797C133.548 68.045 132.938 68.2407 132.321 68.4622C132.336 70.7128 132.951 73.2502 133.505 75.0946C134.599 78.7338 136.712 82.2637 138.944 85.3365C140.394 85.3759 141.882 85.3249 143.35 85.1486C140.67 82.4491 138.55 79.1258 136.789 75.7973C135.578 73.5111 134.27 70.6489 134.127 67.8797ZM135.649 67.4915C135.572 67.509 135.492 67.5284 135.413 67.5458C135.456 70.45 137.039 73.5105 138.298 75.8877C140.025 79.1503 142.238 82.369 144.953 84.8999C146.144 84.6739 147.307 84.3633 148.405 83.9319C142.256 80.8849 138.613 73.7869 136.804 67.2565C136.404 67.3301 136.018 67.4082 135.649 67.4915ZM140.722 66.8044C139.823 66.8406 138.935 66.9271 138.085 67.0472C139.544 72.2337 142.182 77.7663 146.415 81.1265C146.084 80.5866 145.799 79.9827 145.581 79.2911C145.163 77.9665 145.09 76.6323 145.307 75.3885C143.136 72.9389 141.743 69.934 140.722 66.8044ZM142.079 66.7973C142.941 69.3502 144.072 71.7907 145.732 73.8786C145.937 73.3677 146.197 72.8834 146.513 72.4384C145.221 70.8355 144.281 68.9227 143.842 66.9129C143.262 66.8419 142.671 66.8096 142.079 66.7973ZM146.797 67.6084C146.296 67.4179 145.77 67.2694 145.232 67.1493C145.647 68.7024 146.394 70.1703 147.381 71.4439C147.602 71.2359 147.832 71.0377 148.084 70.8594C147.51 69.8345 147.082 68.7451 146.797 67.6084ZM148.374 68.3879C148.601 69.0189 148.876 69.6311 149.206 70.2188C149.494 70.087 149.79 69.9663 150.105 69.8713C149.606 69.2746 149.017 68.7916 148.374 68.3879ZM175.616 81.968C172.044 80.5336 168.668 78.6582 165.104 77.2077C161.622 75.7921 157.75 75.0817 154.021 74.6871C152.632 74.5399 150.507 74.4889 150.269 76.3288C149.944 78.8565 152.438 79.8278 154.459 79.7328C156.577 79.6327 158.568 79.058 160.713 79.1277C162.529 79.1878 164.321 80.0661 165.922 80.8449C169.229 82.4536 172.05 85.1027 175.171 87.044C177.89 88.7341 182.071 91.4064 185.459 90.8543C185.497 90.8317 185.525 90.8039 185.564 90.7826C186.346 90.357 188.611 89.3889 188.423 88.1529C188.234 86.9026 186.752 85.9965 185.795 85.3933C182.82 83.5179 178.867 83.2731 175.616 81.968ZM226.948 77.4389C230.263 70.6024 221.945 60.5291 214.766 60.0977C213.806 60.9844 213.29 62.1979 213.095 63.5399C217.527 64.4685 221.141 67.633 223.004 72.0115C223.299 72.7045 223.283 73.3729 223.084 73.9612C224.605 74.6523 225.931 75.7521 226.948 77.4389ZM222.476 79.8368C220.218 75.5254 210.132 79.1987 206.594 79.6224C200.12 80.3993 192.75 76.6097 187.244 80.3302C189.457 81.3958 191.409 82.9412 192.728 85.0853C194.421 87.8351 193.523 90.4468 191.712 92.4817C194.431 92.8298 197.608 92.2331 199.987 91.8927C203.823 91.3451 207.639 90.5824 211.454 89.9069C216.201 89.066 226.112 86.785 222.476 79.8368ZM217.637 94.0226C217.603 93.9225 217.593 93.8295 217.57 93.7333C216.876 93.9619 216.194 94.1498 215.521 94.3184C215.74 94.4508 215.968 94.5651 216.209 94.6503C216.988 94.9261 216.653 96.1731 215.864 95.8961C215.128 95.6365 214.462 95.2264 213.896 94.6865C213.003 94.877 212.109 95.0643 211.209 95.238C212.045 95.5926 212.954 95.765 213.84 95.9426C214.657 96.106 214.311 97.3511 213.497 97.1883C212.913 97.0708 212.332 96.9475 211.764 96.786C211.933 97.138 212.103 97.4886 212.272 97.8413C213.126 98.1545 214.003 98.3863 214.917 98.5265C215.738 98.6517 215.388 99.8969 214.573 99.7722C214.046 99.6915 213.534 99.5707 213.027 99.4332C213.441 100.31 213.853 101.188 214.261 102.068C214.79 102.084 215.324 102.055 215.864 101.971C216.679 101.847 217.029 103.09 216.208 103.218C215.753 103.287 215.301 103.332 214.853 103.35C215.102 103.891 215.356 104.43 215.602 104.972C216.387 105.068 217.167 105.179 217.93 105.417C218.723 105.663 218.384 106.91 217.587 106.662C217.14 106.523 216.685 106.434 216.228 106.359C216.521 107.01 216.816 107.659 217.106 108.311C217.551 108.31 217.996 108.285 218.447 108.215C219.262 108.09 219.612 109.333 218.791 109.461C218.415 109.519 218.043 109.56 217.673 109.583C217.866 110.021 218.063 110.457 218.255 110.894C218.816 110.92 219.381 110.887 219.954 110.798C220.769 110.673 221.119 111.916 220.297 112.044C219.799 112.121 219.307 112.168 218.817 112.182C219.21 113.081 219.606 113.979 219.995 114.88C220.6 114.938 221.206 114.993 221.805 115.104C222.623 115.255 222.275 116.5 221.462 116.349C221.166 116.295 220.87 116.255 220.572 116.221C220.869 116.909 221.169 117.597 221.463 118.288C221.746 118.259 222.032 118.205 222.322 118.118C223.123 117.879 223.462 119.126 222.666 119.364C222.44 119.431 222.214 119.479 221.987 119.516C222.167 119.942 222.352 120.365 222.532 120.792C223.09 120.847 223.65 120.888 224.216 120.893C225.048 120.902 225.049 122.193 224.216 122.185C223.841 122.181 223.468 122.164 223.096 122.137C223.313 122.655 223.533 123.173 223.748 123.692H224.862C225.695 123.692 225.695 124.983 224.862 124.983H224.285C224.574 125.681 224.866 126.378 225.154 127.076C225.487 127.106 225.82 127.131 226.154 127.136C226.987 127.148 226.988 128.44 226.154 128.428C226.003 128.425 225.852 128.414 225.701 128.405C225.965 129.046 226.231 129.687 226.494 130.328C227.3 130.413 228.108 130.478 228.909 130.604C229.73 130.733 229.381 131.977 228.566 131.849C228.06 131.77 227.551 131.717 227.041 131.666C227.238 132.148 227.437 132.63 227.634 133.112C228.405 133.329 229.191 133.484 229.986 133.618C230.806 133.757 230.457 135.002 229.643 134.864C229.171 134.785 228.703 134.695 228.238 134.593C228.338 134.838 228.438 135.082 228.538 135.328C229.312 135.456 230.095 135.525 230.891 135.533C231.724 135.542 231.724 136.833 230.891 136.824C230.29 136.818 229.694 136.775 229.1 136.707C229.253 137.086 229.408 137.465 229.561 137.843C229.633 137.823 229.696 137.793 229.774 137.777C231.973 137.333 234.194 137.094 236.422 137.031C228.391 123.641 222.574 108.752 217.637 94.0226ZM236.302 142.156C235.671 149.859 238.063 159.032 241.792 165.615C241.951 165.655 242.107 165.705 242.266 165.747C241.658 161.215 241.166 156.687 240.96 152.111C240.821 149.009 240.065 145.295 241.319 142.308C239.637 142.15 237.96 142.089 236.302 142.156ZM242.671 142.455C241.168 145.448 242.144 149.707 242.286 152.89C242.487 157.332 243.001 161.733 243.608 166.136C244.722 166.483 245.81 166.892 246.87 167.35C247.481 159.894 246.613 150.557 250.727 144.241C248.077 143.411 245.375 142.797 242.671 142.455ZM252.013 144.653C249.6 148.256 249.237 153.267 248.865 157.401C248.55 160.902 248.473 164.425 248.113 167.922C248.941 168.327 249.742 168.774 250.517 169.256C252.288 161.689 255.295 154.453 258.808 147.527C256.617 146.425 254.344 145.451 252.013 144.653ZM259.952 148.122C256.413 155.097 253.407 162.383 251.669 170.015C251.947 170.212 252.212 170.422 252.48 170.63C255.722 163.547 259.958 156.935 265.807 151.73C263.963 150.429 262.003 149.216 259.952 148.122ZM269.966 155.007C268.989 154.144 267.953 153.31 266.875 152.506C260.97 157.713 256.745 164.356 253.508 171.476C254.349 172.212 255.125 173.016 255.837 173.881C259.905 167.139 264.942 160.992 271.029 155.981C270.675 155.655 270.324 155.324 269.966 155.007ZM271.985 156.859C265.823 161.92 260.753 168.137 256.679 174.982C257.269 175.813 257.794 176.705 258.253 177.651C263.216 171.314 270.289 166.549 276.687 161.783C275.2 160.061 273.625 158.416 271.985 156.859ZM258.845 179.012C259.007 179.427 259.16 179.846 259.294 180.281C259.345 180.446 259.38 180.612 259.425 180.777C266.412 175.881 274.15 172.109 282.239 169.407C280.843 167.088 279.247 164.873 277.509 162.772C271.022 167.608 263.751 172.462 258.845 179.012ZM260.096 185.468C260.102 185.743 260.098 186.019 260.094 186.292C260.466 186.188 260.822 186.083 261.119 185.956C263.597 184.903 266.102 184.114 268.715 183.448C274.847 181.882 280.594 180.381 286.954 180.504C286.551 178.928 286.052 177.383 285.455 175.875C276.394 177.201 268.21 181.377 260.096 185.468ZM284.944 174.654C284.798 174.317 284.659 173.976 284.503 173.643C283.876 173.12 283.502 172.332 283.459 171.551C283.279 171.211 283.077 170.883 282.888 170.547C274.663 173.266 266.817 177.121 259.746 182.129C259.872 182.771 259.954 183.418 260.013 184.068C268.009 180.042 276.05 176.045 284.944 174.654ZM270.093 184.359C267.696 185.088 265.276 185.684 262.923 186.558C262.333 186.777 261.088 187.113 260.043 187.504C259.954 188.779 259.757 190.051 259.469 191.308C268.345 187.289 278.308 187.187 287.906 186.221C287.779 184.726 287.565 183.251 287.253 181.807C281.405 181.639 275.679 182.66 270.093 184.359ZM294.632 158.466C293.752 154.972 288.934 154.395 286.043 154.787C283.743 155.097 281.546 155.94 279.478 157.007C282.665 160.496 285.439 164.346 287.645 168.48C291.665 166.798 295.747 162.897 294.632 158.466ZM287.449 195.744C287.806 193.66 288.009 191.548 288.035 189.418C288.044 188.775 288.031 188.136 288.002 187.501C278.213 188.485 267.996 188.529 259.038 192.952C258.938 193.29 258.83 193.627 258.718 193.963C268.209 192.331 277.813 194.742 287.291 195.695C287.352 195.702 287.397 195.726 287.449 195.744ZM287.214 196.978C277.937 196.039 268.506 193.662 259.212 195.201C267.532 198.998 275.775 203.005 283.353 208.135C285.114 204.57 286.436 200.829 287.214 196.978ZM277.327 217.622C279.4 214.998 281.229 212.207 282.763 209.294C274.98 204.015 266.492 199.925 257.939 196.034C257.925 196.065 257.913 196.098 257.899 196.128C260.95 199.632 264.516 202.797 267.599 206.239C270.932 209.963 273.972 213.925 277.327 217.622ZM276.504 218.642C273.101 214.926 270.005 210.947 266.686 207.153C263.736 203.781 260.333 200.742 257.334 197.4C257.036 198.027 256.721 198.644 256.39 199.247C261.425 207.543 267.394 215.231 271.348 224.132C273.186 222.41 274.908 220.571 276.504 218.642ZM270.352 225.063C266.545 216.252 260.668 208.656 255.659 200.522C255.447 200.875 255.234 201.229 255.011 201.57C254.701 202.043 254.373 202.507 254.037 202.964C258.757 211.377 261.658 220.64 264.186 229.914C266.34 228.434 268.404 226.81 270.352 225.063ZM263.054 230.677C260.575 221.541 257.761 212.405 253.179 204.086C252.671 204.719 252.144 205.339 251.594 205.938C251.658 206.002 251.712 206.081 251.749 206.179C255.323 215.487 255.595 225.369 254.832 235.186C257.671 233.917 260.423 232.4 263.054 230.677ZM253.492 235.77C254.29 226.016 254.107 216.198 250.648 206.926C249.269 208.308 247.776 209.576 246.179 210.695C249.003 219.388 250.031 228.534 248.482 237.582C250.172 237.065 251.845 236.457 253.492 235.77ZM247.101 237.976C248.762 229.053 247.793 220.02 245.06 211.431C244.118 212.033 243.156 212.601 242.157 213.095C243.682 221.684 242.497 230.424 242.109 239.093C243.783 238.813 245.449 238.432 247.101 237.976ZM240.808 239.292C241.179 230.758 242.39 222.127 240.946 213.661C239.932 214.107 238.895 214.504 237.833 214.831C237.495 223.186 235.69 231.392 235.106 239.725C237.006 239.705 238.91 239.555 240.808 239.292ZM233.822 239.62C234.406 231.444 236.149 223.387 236.524 215.195C236.438 215.217 236.353 215.244 236.267 215.265C235.594 215.429 234.924 215.547 234.255 215.647C232.54 223.566 231.581 231.646 228.808 239.274C230.495 239.252 232.199 239.25 233.822 239.62ZM226.347 239.271C226.71 239.283 227.079 239.285 227.449 239.285C230.298 231.736 231.24 223.677 232.905 215.807C232.075 215.878 231.249 215.914 230.431 215.897C229.156 223.939 225.618 231.437 222.264 238.835C223.615 239.07 224.978 239.229 226.347 239.271ZM216.973 237.523C218.284 237.935 219.62 238.293 220.969 238.583C224.29 231.255 227.873 223.809 229.145 215.835C227.905 215.739 226.68 215.551 225.478 215.264C221.336 222.115 218.517 229.727 214.717 236.772C215.47 237.035 216.223 237.287 216.973 237.523ZM213.492 236.322C217.29 229.328 220.097 221.757 224.177 214.92C223.339 214.672 222.512 214.384 221.7 214.052C219.246 216.753 217.846 220.478 215.841 223.468C213.401 227.107 210.427 230.594 207.186 233.599C209.236 234.639 211.359 235.533 213.492 236.322ZM197.826 227.167C200.227 229.443 203.006 231.35 205.967 232.958C209.449 229.769 212.563 226.042 215.179 222.142C217.031 219.38 218.301 216.074 220.464 213.514C219.143 212.898 217.86 212.183 216.629 211.37C211.492 218.114 203.581 221.179 197.286 226.637C197.466 226.813 197.642 226.992 197.826 227.167ZM196.377 225.718C202.59 220.344 210.51 217.305 215.566 210.642C214.261 209.702 213.014 208.662 211.842 207.532C211.747 207.44 211.665 207.345 211.587 207.249C205.643 211.566 197.819 218.14 190.097 217.33C190.057 217.326 190.029 217.308 189.993 217.298C191.8 220.306 193.902 223.135 196.377 225.718ZM189.507 216.449C189.568 216.2 189.76 216.004 190.097 216.038C197.322 216.796 204.764 210.666 210.467 206.476C210.317 206.459 210.161 206.447 210.014 206.425C207.898 206.115 206.018 205.277 204.405 204.082C199.484 207.918 192.683 210.177 186.495 210.508C187.395 212.546 188.4 214.528 189.507 216.449ZM185.949 209.242C191.882 209.03 198.581 206.912 203.382 203.245C202.081 202.073 200.988 200.656 200.13 199.095C195.262 202.071 189.837 204.264 184.101 204.408C184.67 206.04 185.284 207.654 185.949 209.242ZM199.544 197.94C199.267 197.334 199.022 196.712 198.813 196.078C198.4 194.832 198.149 193.435 197.893 192.018C197.835 192.058 197.775 192.098 197.695 192.12C192.325 193.667 187.163 195.733 181.597 196.231C182.222 198.543 182.904 200.846 183.662 203.118C189.368 203.072 194.725 200.897 199.544 197.94ZM183.362 216.151C182.733 214.9 182.156 213.617 181.599 212.325C176.471 206.651 170.795 201.512 165.534 195.964C163.866 196.661 162.231 197.443 160.596 198.212C166.793 205.705 173.24 213.232 180.933 219.187C181.789 218.225 182.602 217.217 183.362 216.151ZM180.062 220.133C172.246 214.041 165.7 206.398 159.392 198.773C157.797 199.506 156.189 200.193 154.535 200.744C154.679 200.702 154.844 200.723 155.012 200.843C163.451 206.886 168.78 216.469 175.93 223.867C177.387 222.722 178.774 221.485 180.062 220.133ZM174.894 224.651C167.898 217.361 162.638 207.887 154.36 201.957C153.861 201.6 154.09 200.889 154.519 200.748C154.132 200.876 153.743 200.992 153.352 201.104C159.872 209.241 162.618 219.964 168.627 228.491C170.819 227.371 172.924 226.102 174.894 224.651ZM167.465 229.074C161.421 220.454 158.717 209.54 151.966 201.455C151.316 201.601 150.654 201.707 149.984 201.792C155.855 210.769 156.685 222.019 161.775 231.402C163.719 230.728 165.622 229.957 167.465 229.074ZM160.533 231.815C155.531 222.432 154.673 211.217 148.775 202.303C148.399 203.432 147.913 204.498 147.348 205.515C149.769 214.821 152.626 224.006 155.235 233.261C157.02 232.85 158.791 232.376 160.533 231.815ZM143.061 234.982C146.669 234.772 150.345 234.306 153.972 233.545C151.479 224.702 148.764 215.92 146.416 207.037C146.064 207.554 145.68 208.049 145.282 208.533C145.599 208.614 145.893 208.905 145.836 209.321C144.667 217.866 144.525 226.547 142.716 234.996C142.832 234.991 142.946 234.989 143.061 234.982ZM141.384 235.04C143.242 226.609 143.404 217.93 144.538 209.388C143.489 210.532 142.308 211.568 141.031 212.5C138.086 219.394 136.348 226.742 133.286 233.584C132.946 234.343 131.833 233.686 132.17 232.932C134.951 226.719 136.65 220.087 139.144 213.757C137.667 214.655 136.087 215.42 134.444 216.06C131.625 220.964 128.939 225.947 126.397 231.001C126.373 231.049 126.338 231.076 126.308 231.113C130.803 234.083 135.948 235.133 141.384 235.04ZM124.002 229.379C124.418 229.737 124.843 230.068 125.272 230.387C125.278 230.374 125.276 230.363 125.282 230.35C127.595 225.749 130.033 221.207 132.579 216.729C130.413 217.425 128.166 217.902 125.911 218.159C124.91 219.692 123.975 221.268 123.008 222.822C122.303 223.954 121.585 225.222 120.715 226.318C121.776 227.373 122.866 228.4 124.002 229.379ZM119.799 225.388C120.585 224.373 121.236 223.214 121.89 222.171C122.696 220.888 123.476 219.586 124.286 218.305C121.946 218.458 119.618 218.366 117.386 218.024C116.735 218.939 116.132 219.889 115.494 220.809C116.915 222.35 118.335 223.892 119.799 225.388ZM114.61 219.857C115.081 219.172 115.537 218.472 116.005 217.781C114.389 217.452 112.834 216.987 111.375 216.377C111.33 216.359 111.293 216.334 111.251 216.312C112.392 217.471 113.503 218.661 114.61 219.857ZM111.468 200.662C100.625 202.314 89.7628 200.321 78.8867 199.822C78.8241 200.204 78.7543 200.587 78.6704 200.969C78.5671 201.441 78.4411 201.906 78.3036 202.367C88.455 204.965 98.9203 205.909 109.276 207.444C110.138 205.236 110.876 202.974 111.468 200.662ZM108.781 208.668C98.4528 207.144 88.0185 206.196 77.8941 203.596C77.4563 204.783 76.9119 205.929 76.2854 207.034C86.2186 209.313 96.4902 210.542 105.918 214.563C106.974 212.653 107.939 210.69 108.781 208.668ZM105.285 215.688C97.402 212.325 88.8871 210.957 80.5051 209.253C88.1263 212.245 95.6654 215.637 101.571 221.312C102.913 219.507 104.155 217.631 105.285 215.688ZM100.782 222.351C94.0658 215.856 85.1918 212.413 76.5205 209.089C83.1917 215.153 90.5629 220.477 96.4469 227.338C97.9891 225.756 99.4318 224.088 100.782 222.351ZM95.5331 228.25C89.4244 221.128 81.7115 215.663 74.8433 209.304C74.5153 209.769 74.1801 210.227 73.8268 210.672C79.2393 218.116 85.0439 225.268 90.7412 232.497C92.4216 231.166 94.0141 229.742 95.5331 228.25ZM88.9174 233.908C88.951 233.881 88.9813 233.853 89.0156 233.828C89.2571 233.651 89.4864 233.461 89.7253 233.28C84.0874 226.13 78.3501 219.052 72.9841 211.695C72.7148 212.008 72.4448 212.323 72.1645 212.624C77.6978 219.622 80.4386 228.61 84.8708 236.307C86.1714 235.414 87.5347 234.448 88.9174 233.908ZM82.6415 237.716C83.0167 237.518 83.4042 237.279 83.7949 237.028C79.4118 229.428 76.7116 220.49 71.2656 213.56C71.1222 213.705 70.9801 213.849 70.8355 213.99C70.7657 214.058 70.6908 214.105 70.6191 214.163C73.9554 222.545 75.0778 231.539 77.1676 240.286C79.0308 239.519 80.8532 238.654 82.6415 237.716ZM72.6114 241.914C73.7429 241.575 74.8556 241.187 75.9548 240.766C73.8695 232.053 72.7916 223.05 69.4567 214.705C69.2778 214.731 69.0982 214.743 68.9226 214.728C68.1547 215.279 67.3481 215.764 66.515 216.194C67.9474 224.99 68.5228 234.298 67.5134 243.205C69.228 242.851 70.9291 242.419 72.6114 241.914ZM66.2018 243.453C67.259 234.691 66.6997 225.439 65.3073 216.771C63.9415 217.367 62.5116 217.818 61.0392 218.131C61.2207 223.313 60.8448 228.55 60.3346 233.698C60.024 236.832 59.9078 241.019 58.6187 244.271C61.1639 244.191 63.6967 243.906 66.2018 243.453ZM53.4258 244.157C54.7064 244.259 55.987 244.291 57.2645 244.287C58.9184 240.795 58.8809 235.486 59.1935 232.111C59.6165 227.563 59.9019 222.936 59.756 218.358C58.3455 218.58 56.908 218.696 55.4581 218.685C54.1807 227.081 52.3311 235.976 48.4557 243.494C50.0954 243.795 51.7518 244.024 53.4258 244.157ZM47.1298 243.236C51.0318 235.838 52.8917 226.986 54.1678 218.647C52.7929 218.574 51.416 218.408 50.054 218.143C47.9674 226.349 43.0793 233.682 37.9852 240.366C40.9294 241.606 43.9899 242.569 47.1298 243.236ZM36.7808 239.834C41.8271 233.223 46.701 225.981 48.7908 217.863C46.9315 217.42 45.1097 216.817 43.3732 216.047C39.3246 223.161 32.7722 228.343 27.0103 234.071C30.054 236.343 33.3328 238.275 36.7808 239.834ZM25.9835 233.272C31.6705 227.608 38.1744 222.5 42.2042 215.494C40.7299 214.763 39.3252 213.92 38.0252 212.969C32.4881 218.474 26.0184 222.864 19.9969 227.808C21.8555 229.787 23.8627 231.607 25.9835 233.272ZM19.1198 226.864C25.0871 221.971 31.4942 217.614 36.9926 212.176C36.0555 211.416 35.1791 210.601 34.3809 209.73C27.2461 212.929 19.6804 215.989 11.8991 216.944C13.9256 220.453 16.3538 223.776 19.1198 226.864ZM11.2113 215.715C18.921 214.871 26.4459 211.869 33.5085 208.711C32.4745 207.435 31.6078 206.071 30.9065 204.638C23.574 207.193 16.0129 208.945 8.26705 209.357C9.09627 211.536 10.0902 213.655 11.2113 215.715ZM7.80596 208.086C15.533 207.723 23.0599 205.993 30.3692 203.462C30.0702 202.747 29.8073 202.019 29.5839 201.28C21.7825 202.882 13.9721 203.089 6.13076 202.104C6.55569 204.139 7.12334 206.132 7.80596 208.086ZM5.88079 200.779C13.6983 201.812 21.4706 201.632 29.2513 200.034C28.8141 198.227 28.5893 196.369 28.5706 194.504C20.7376 195.288 12.7942 194.893 5.15426 192.954C5.16588 195.612 5.42293 198.222 5.88079 200.779Z" fill="#10162F"/>
<path d="M156.532 191.372C155.842 191.856 155.11 192.204 154.336 192.531C153.205 193.007 151.909 193.178 150.712 192.855C147.913 192.1 147.243 188.915 148.546 186.616C149.578 184.799 151.446 183.787 153.43 183.282C153.806 183.079 154.232 182.941 154.686 182.888C156.132 182.719 158.101 182.735 159.106 183.998C160.381 185.602 160.062 187.467 158.869 189.016C158.169 189.92 157.476 190.71 156.532 191.372Z" fill="#10162F"/>
</g>
<defs>
<clipPath id="clip0_6_273">
<rect width="300" height="300" fill="white"/>
</clipPath>
</defs>
</svg>
