<svg width="419" height="24" viewBox="0 0 419 24" fill="none" xmlns="http://www.w3.org/2000/svg">
<path d="M0.5 19L44.0611 15.7561C46.2539 15.5928 48.4157 16.3502 50.027 17.8465V17.8465C52.6619 20.2932 56.6162 20.6533 59.6498 18.7229L65.1382 15.2302C68.8836 12.8468 73.438 12.091 77.7524 13.137L82.6713 14.3294C85.8659 15.1039 89.1712 15.3143 92.4381 14.9513L116.131 12.3188C121.005 11.7773 125.936 12.1089 130.693 13.2982L131.481 13.4952C136.764 14.8159 142.271 14.9723 147.62 13.9534L151.329 13.2469C157.267 12.1158 163.414 13.0297 168.766 15.8397L169.37 16.1569C176.383 19.8387 184.817 19.9856 191.994 16.636V16.636C198.884 13.4206 206.965 13.4823 213.765 16.8827L214.15 17.0751C220.403 20.2013 227.708 20.4425 234.153 17.7356L242.356 14.2903C246.374 12.6028 251.014 13.5138 254.095 16.5953V16.5953C257.33 19.8299 262.26 20.6574 266.373 18.6563L283.369 10.3882C291.594 6.38666 301.258 6.66918 309.236 11.1444V11.1444C314.287 13.9778 320.094 15.17 325.852 14.5557L341.154 12.9235C349.897 11.991 348.657 14.0082 357.414 14.7908C359.844 15.008 362.984 15.243 367 15.5C369.486 15.6591 375.727 9.4674 389.161 5.3997C392.669 4.33752 396.349 4 400.015 4H419" stroke="#F7E02D" stroke-width="8"/>
</svg>
