<svg width="20" height="20" viewBox="0 0 20 20" fill="none" xmlns="http://www.w3.org/2000/svg">
<g clip-path="url(#clip0_28_127)">
<path d="M10.3175 7.18432C9.96772 7.15661 9.20652 7.14721 8.03378 7.39055C6.36273 7.7376 5.59155 9.28028 5.59155 10.4888C5.59155 11.6969 6.74825 13.0982 8.48368 13.0982C9.81168 13.0982 10.5604 12.2999 10.8382 11.925C10.9004 11.8418 11.026 11.8459 11.0824 11.9336C11.1513 12.0409 11.2493 12.183 11.3758 12.3396C11.5114 12.5078 11.6925 12.6755 11.8392 12.8013C11.981 12.9229 12.1921 12.9158 12.3276 12.7874L13.4779 11.6915C13.6112 11.5645 13.6297 11.3588 13.5204 11.2107C13.457 11.1248 13.377 11.0139 13.278 10.8744C12.9694 10.4374 12.9824 10.0903 12.9824 10.0903V6.02807C12.9824 5.5397 12.6868 3.53455 9.57592 3.53455C7.03547 3.53455 6.2612 5.34333 6.06265 6.00667C6.02462 6.13364 6.10731 6.26432 6.23794 6.28617L7.81547 6.55273C7.91118 6.5689 8.00648 6.52102 8.04941 6.43376C8.22252 6.08362 8.72533 5.23104 9.51159 5.23104C10.5018 5.23149 10.5403 6.04114 10.5403 6.04114V6.97723C10.5403 7.09797 10.4384 7.19372 10.3175 7.18432ZM10.5662 8.68671V9.87112C10.5662 10.4897 10.1404 11.0318 9.53662 11.1659C9.38046 11.2009 9.20203 11.2214 8.99753 11.2214C7.6866 11.2214 7.93081 9.53743 8.53506 9.03603C8.99308 8.65587 9.92339 8.52704 10.3471 8.48721C10.4647 8.47603 10.5662 8.56865 10.5662 8.68671Z" fill="white"/>
<path d="M14.2486 13.6153C14.8851 13.5384 15.1647 13.4583 15.3574 13.6287C15.5502 13.7988 15.4827 14.1458 15.3574 14.5412C15.2322 14.9361 14.9228 15.2657 15.2224 15.4281C15.5725 15.6177 16.9207 13.8743 16.3602 13.0083C15.8942 12.2882 13.9401 13.0951 13.7956 13.1913C13.6511 13.2879 13.6511 13.4032 13.6511 13.4032C13.6511 13.4032 13.6126 13.6927 14.2486 13.6153Z" fill="white"/>
<path d="M9.42243 16.4654C11.7742 16.4654 12.7641 15.9774 13.7798 15.412C14.7951 14.8463 14.988 14.4222 14.8466 14.1569C14.7052 13.8917 14.1264 14.1651 13.6125 14.3833C13.0982 14.6021 11.5175 15.2064 9.24218 15.2064C6.96688 15.2064 4.67868 13.5992 4.19022 13.2589C3.70177 12.9181 3.52829 13.2589 3.52829 13.2589C3.52829 13.2589 3.3807 13.5415 3.83068 14.0945C4.28012 14.6472 6.56478 16.4654 9.42243 16.4654Z" fill="white"/>
<path d="M0 0V20H20V0H0ZM18.7629 18.7629H1.23711V1.23711H18.7629V18.7629Z" fill="white"/>
</g>
<defs>
<clipPath id="clip0_28_127">
<rect width="20" height="20" fill="white"/>
</clipPath>
</defs>
</svg>
