<svg width="20" height="20" viewBox="0 0 20 20" fill="none" xmlns="http://www.w3.org/2000/svg">
<g clip-path="url(#clip0_28_167)">
<path d="M14.0086 16.4948H16.4948C16.4934 12.914 15.0375 9.66946 12.6858 7.31634C10.3326 4.96323 7.09082 3.50657 3.51074 3.50513V5.98434C9.29944 5.98867 14.0042 10.7012 14.0086 16.4948Z" fill="white"/>
<path d="M9.58556 16.4907C9.58626 16.4907 9.58626 16.4949 9.58626 16.4949H12.0769C12.0747 14.1318 11.1142 11.9923 9.56156 10.4384C8.00841 8.88434 5.86944 7.92381 3.50659 7.92236V10.4023C5.12597 10.4038 6.65748 11.0395 7.80329 12.1875C8.94923 13.3321 9.58284 14.8655 9.58556 16.4907Z" fill="white"/>
<path d="M5.2297 16.4786C5.70669 16.4786 6.13519 16.2877 6.4509 15.9747C6.76373 15.6612 6.95552 15.2356 6.95696 14.7613C6.95552 14.287 6.76372 13.8605 6.44946 13.5462C6.13519 13.2334 5.70669 13.0409 5.2297 13.0409C4.75321 13.0409 4.32546 13.2334 4.01119 13.5455C3.69816 13.8592 3.50513 14.287 3.50513 14.7613C3.50513 15.2356 3.69816 15.6619 4.01119 15.9747C4.32476 16.287 4.75321 16.4786 5.2297 16.4786Z" fill="white"/>
<path d="M0 0V20H20V0H0ZM18.7629 18.7629H1.23711V1.23711H18.7629V18.7629Z" fill="white"/>
</g>
<defs>
<clipPath id="clip0_28_167">
<rect width="20" height="20" fill="white"/>
</clipPath>
</defs>
</svg>
