<svg width="20" height="20" viewBox="0 0 20 20" fill="none" xmlns="http://www.w3.org/2000/svg">
<path d="M4.9852 16.4948C8.32833 16.4948 11.6736 16.4948 15.0167 16.4948C15.0738 16.4948 15.1309 16.4906 15.1885 16.4843C15.9228 16.3984 16.4937 15.7558 16.4937 15.0173C16.4937 11.6742 16.4937 8.32946 16.4937 4.98632C16.4937 4.94335 16.4958 4.90043 16.4895 4.8575C16.4099 4.08389 15.7693 3.50513 14.9899 3.50513C11.6652 3.50513 8.34037 3.50513 5.01398 3.50723C4.92388 3.50723 4.83171 3.51296 4.74371 3.52975C4.00734 3.67065 3.5061 4.2803 3.5061 5.02925V10.0029C3.5061 11.6558 3.5061 13.3109 3.5061 14.9644C3.5061 15.0482 3.51237 15.1341 3.52445 15.2179C3.62078 15.936 4.25926 16.4948 4.9852 16.4948ZM12.5 5.50381C12.5021 5.21729 12.7232 5.00678 13.0112 5.00467C13.5046 5.00467 13.9953 5.00467 14.4887 5.00467C14.781 5.00678 14.9978 5.2215 14.9978 5.51638C14.9999 6.00715 14.9999 6.50001 14.9978 6.99131C14.9978 7.28777 14.781 7.50302 14.4845 7.50302H13.7481C13.5025 7.50302 13.2548 7.50302 13.0075 7.50302C12.7231 7.50302 12.5021 7.28987 12.5 7.00546C12.4979 6.50418 12.4979 6.00504 12.5 5.50381ZM9.99963 7.50298C11.3808 7.50298 12.4979 8.61754 12.5 9.99869C12.5 11.3798 11.3849 12.497 10.0038 12.4991C8.62107 12.4991 7.50181 11.3798 7.50392 9.99659C7.50602 8.6217 8.62318 7.50298 9.99963 7.50298ZM5.00561 9.06377V9.00669H6.13324C5.88132 10.0233 5.996 10.997 6.49518 11.9177C6.85918 12.5907 7.38083 13.1124 8.04602 13.489C9.36169 14.2317 10.9984 14.1599 12.2502 13.3052C12.9442 12.8301 13.4433 12.198 13.7419 11.4102C14.0383 10.6246 14.0755 9.82269 13.8686 9.00463H14.9978C14.9978 9.02715 14.9978 9.0476 14.9978 9.07012V14.4528C14.9978 14.7906 14.7935 14.997 14.4557 14.997H6.13113C5.93052 14.997 5.73204 14.9991 5.53142 14.997C5.21872 14.997 5.00557 14.7843 5.00557 14.4711C5.00561 12.6688 5.00561 10.866 5.00561 9.06377Z" fill="white"/>
<path d="M0 0V20H20V0H0ZM18.7629 18.7629H1.23711V1.23711H18.7629V18.7629Z" fill="white"/>
</svg>
