<svg width="20" height="20" viewBox="0 0 20 20" fill="none" xmlns="http://www.w3.org/2000/svg">
<g clip-path="url(#clip0_28_188)">
<path d="M7.83185 11.2396H10.216C12.4973 11.2396 14.4043 9.83292 14.9159 7.44175C15.4938 4.73482 13.5522 3.50513 11.8848 3.50513H6.19696L3.67676 15.0726H7.01437L7.83185 11.2396ZM11.782 7.44245C11.5831 8.30084 10.7672 8.98587 9.93614 9.01836L10.3273 7.28315H11.8086C11.8002 7.33601 11.7968 7.3876 11.782 7.44245ZM9.02364 5.86043H10.6578C11.2189 5.86043 11.6431 6.19436 11.7827 6.68492C11.7114 6.6723 11.6452 6.65119 11.5669 6.65119H9.93202L9.39639 9.02467H8.30835L9.02364 5.86043Z" fill="white"/>
<path d="M15.8243 8.23251C15.3134 10.6237 13.4057 12.0297 11.1251 12.0297H8.74022L7.92348 15.8627H5.11931L4.98059 16.4949H8.31824L9.13568 12.6625H11.5198C13.8003 12.6625 15.7087 11.2559 16.2196 8.86468C16.489 7.60468 16.2084 6.66868 15.6679 6.02319C15.9271 6.60538 16.0161 7.33606 15.8243 8.23251Z" fill="white"/>
<path d="M0 0V20H20V0H0ZM18.7629 18.7629H1.23711V1.23711H18.7629V18.7629Z" fill="white"/>
</g>
<defs>
<clipPath id="clip0_28_188">
<rect width="20" height="20" fill="white"/>
</clipPath>
</defs>
</svg>
