<svg width="20" height="20" viewBox="0 0 20 20" fill="none" xmlns="http://www.w3.org/2000/svg">
<g clip-path="url(#clip0_28_148)">
<path d="M3.73457 9.76805L6.72768 10.8851L7.8862 14.6109C7.96034 14.8495 8.25214 14.9377 8.44575 14.7793L10.1142 13.4193C10.289 13.2767 10.5382 13.2697 10.7209 13.4023L13.7302 15.5871C13.9373 15.7376 14.2309 15.6241 14.2828 15.3738L16.4872 4.77024C16.5439 4.49676 16.2753 4.26863 16.0149 4.36937L3.73111 9.10814C3.42793 9.22496 3.43053 9.65416 3.73457 9.76805ZM7.69948 10.2905L13.5491 6.68777C13.6542 6.62323 13.7624 6.76537 13.6721 6.84913L8.84447 11.3366C8.67474 11.4945 8.56529 11.706 8.53428 11.9354L8.36991 13.1541C8.34801 13.3168 8.11956 13.3329 8.07457 13.1754L7.44212 10.9531C7.36975 10.6997 7.47527 10.4289 7.69948 10.2905Z" fill="white"/>
<path d="M0 0V20H20V0H0ZM18.7629 18.7629H1.23711V1.23711H18.7629V18.7629Z" fill="white"/>
</g>
<defs>
<clipPath id="clip0_28_148">
<rect width="20" height="20" fill="white"/>
</clipPath>
</defs>
</svg>
