<svg width="20" height="20" viewBox="0 0 20 20" fill="none" xmlns="http://www.w3.org/2000/svg">
<path d="M3.50513 14.0808C4.68447 14.8371 6.08525 15.2782 7.59028 15.2782C12.4922 15.2782 15.1727 11.2175 15.1727 7.6957C15.1727 7.58027 15.1701 7.46531 15.165 7.35096C15.6858 6.97524 16.1376 6.50588 16.4949 5.97145C16.0169 6.18341 15.5033 6.32675 14.9642 6.39116C15.5145 6.06126 15.937 5.53912 16.136 4.91677C15.621 5.22209 15.0507 5.44399 14.4437 5.56341C13.9576 5.04547 13.265 4.72192 12.4984 4.72192C11.0267 4.72192 9.83342 5.91512 9.83342 7.38679C9.83342 7.59566 9.85709 7.79904 9.90257 7.99417C7.68773 7.88291 5.72401 6.82205 4.40966 5.20959C4.18022 5.60328 4.0488 6.06102 4.0488 6.54947C4.0488 7.47396 4.51915 8.28972 5.23428 8.76761C4.79737 8.75376 4.38645 8.6338 4.02723 8.43425C4.02698 8.44543 4.02698 8.45656 4.02698 8.46782C4.02698 9.759 4.94566 10.836 6.16476 11.0809C5.94113 11.1417 5.70566 11.1745 5.46261 11.1745C5.2909 11.1745 5.12393 11.1577 4.96113 11.1265C5.3003 12.1853 6.28455 12.9558 7.45074 12.9772C6.53861 13.6921 5.38954 14.1182 4.14096 14.1182C3.9257 14.1182 3.71362 14.1056 3.50513 14.0808Z" fill="white"/>
<path d="M0 0V20H20V0H0ZM18.7629 18.7629H1.23711V1.23711H18.7629V18.7629Z" fill="white"/>
</svg>
