<svg width="20" height="20" viewBox="0 0 20 20" fill="none" xmlns="http://www.w3.org/2000/svg">
<path d="M5.13548 14.3473C6.74603 14.5268 8.37618 14.528 9.99931 14.5268C11.6231 14.528 13.2533 14.5268 14.8633 14.3473C15.5435 14.2714 16.1085 13.7613 16.2677 13.0706C16.4942 12.0872 16.4948 11.0128 16.4948 9.99998C16.4948 8.98712 16.4968 7.91326 16.2702 6.92988C16.1112 6.2385 15.5462 5.72914 14.8658 5.65322C13.2553 5.47322 11.625 5.47252 10.002 5.47322C8.37886 5.47256 6.74801 5.47322 5.13729 5.65322C4.45783 5.72914 3.89263 6.2385 3.73424 6.92988C3.50781 7.9133 3.50513 8.98716 3.50513 10C3.50513 11.0129 3.50513 12.0872 3.73172 13.0706C3.89012 13.7613 4.45515 14.2714 5.13548 14.3473ZM8.32389 7.72089C9.70014 8.43907 11.0678 9.1521 12.4533 9.87499C11.0718 10.5912 9.70401 11.3008 8.32389 12.0165V7.72089Z" fill="white"/>
<path d="M0 0V20H20V0H0ZM18.7629 18.7629H1.23711V1.23711H18.7629V18.7629Z" fill="white"/>
</svg>
