<svg width="20" height="20" viewBox="0 0 20 20" fill="none" xmlns="http://www.w3.org/2000/svg">
<path d="M14.9527 1.67456C13.2283 1.67456 11.705 2.54027 10.7947 3.85938C10.7947 3.85938 10.4873 4.31934 9.99978 4.31934C9.51271 4.31934 9.20534 3.85938 9.20534 3.85938C8.2946 2.54027 6.77218 1.67456 5.04733 1.67456C2.25958 1.67456 0 3.93414 0 6.72276C0 7.38123 0.129419 8.00777 0.358525 8.58447C1.77251 12.9751 8.09654 18.137 9.99978 18.3254C11.9035 18.137 18.2266 12.9751 19.6415 8.58447C19.8706 8.00821 20 7.38123 20 6.72276C20 3.93414 17.7404 1.67456 14.9527 1.67456Z" fill="#10162F"/>
</svg>
