<svg width="20" height="20" viewBox="0 0 20 20" fill="none" xmlns="http://www.w3.org/2000/svg">
<g clip-path="url(#clip0_18_102)">
<path d="M10 0C4.486 0 0 4.486 0 10C0 15.514 4.486 20 10 20C15.514 20 20 15.514 20 10C20 4.486 15.514 0 10 0ZM7.33333 9.66667C7.33333 10.1627 7.15067 10.616 6.85067 10.966L11.0893 14.0743C11.3427 13.26 12.1033 12.6667 13 12.6667C14.103 12.6667 15 13.5637 15 14.6667C15 15.7697 14.103 16.6667 13 16.6667C11.9563 16.6667 11.0983 15.863 11.009 14.842L6.32033 11.404C6.02867 11.5703 5.69233 11.6667 5.33333 11.6667C4.23033 11.6667 3.33333 10.7697 3.33333 9.66667C3.33333 8.56367 4.23033 7.66667 5.33333 7.66667C5.69233 7.66667 6.02867 7.763 6.32033 7.92933L11.0087 4.49133C11.0983 3.47033 11.9563 2.66667 13 2.66667C14.103 2.66667 15 3.56367 15 4.66667C15 5.76967 14.103 6.66667 13 6.66667C12.1033 6.66667 11.3427 6.07333 11.0897 5.259L6.851 8.36733C7.15067 8.71733 7.33333 9.17067 7.33333 9.66667Z" fill="#10162F"/>
</g>
<defs>
<clipPath id="clip0_18_102">
<rect width="20" height="20" fill="white"/>
</clipPath>
</defs>
</svg>
